<svg width="24" height="24" viewBox="0 0 24 24" fill="none" xmlns="http://www.w3.org/2000/svg">
    <path  fill-rule="evenodd" clip-rule="evenodd" d="M9.8787 12L11.9498 14.0711L14.0208 12H20V4H4V12H9.8787ZM11.9498 16.8995L9.05027 14H3C2.44772 14 2 13.5523 2 13V3C2 2.44772 2.44772 2 3 2H21C21.5523 2 22 2.44772 22 3V13C22 13.5523 21.5523 14 21 14H14.8493L11.9498 16.8995Z"/>
    <path fill-rule="evenodd" clip-rule="evenodd" d="M13.7324 19H20.75C21.4404 19 22 19.4477 22 20C22 20.5523 21.4404 21 20.75 21H13.7324C13.3866 21.5978 12.7403 22 12 22C11.2597 22 10.6134 21.5978 10.2676 21H3.25C2.55964 21 2 20.5523 2 20C2 19.4477 2.55964 19 3.25 19H10.2676C10.6134 18.4022 11.2597 18 12 18C12.7403 18 13.3866 18.4022 13.7324 19Z"/>
</svg>
