<svg width="18" height="18" viewBox="0 0 18 18" version="1.1" xmlns="http://www.w3.org/2000/svg" xmlns:xlink="http://www.w3.org/1999/xlink">
<title>&#208;&#154;&#208;&#189;&#208;&#184;&#208;&#179;&#208;&#184;</title>
<desc>Created using Figma</desc>
<g id="Canvas" transform="translate(-31266 -1030)">
<g id="&#208;&#154;&#208;&#189;&#208;&#184;&#208;&#179;&#208;&#184;">
<g id="Group">
<g id="Group">
<g id="Vector">
<use xlink:href="#path0_fill" transform="translate(31266 1030)" fill="#2F2F2F" fill-opacity="0.4"/>
</g>
</g>
<g id="Vector">
<use xlink:href="#path1_fill" transform="translate(31275 1030)" fill="#2F2F2F" fill-opacity="0.4"/>
</g>
</g>
</g>
</g>
<defs>
<path id="path0_fill" d="M 9 4C 9 4 7 0 4 0C 1 0 0 1 0 1L 0 15C 0 15 1 14 4 14C 7 14 9 18 9 18L 9 4Z"/>
<path id="path1_fill" d="M 5 2C 5.922 2 6.571 2.112 7 2.231L 7 12.146C 6.421 12.055 5.757 12 5 12C 3 12 0 14 0 15L 0 8L 0 7C 0 5 3.843 2 5 2ZM 5 0C 2 0 0 4 0 4L 0 8L 0 18C 0 18 2 14 5 14C 8 14 9 15 9 15L 9 1C 9 1 8 0 5 0Z"/>
</defs>
</svg>
