<svg width="14" height="23" viewBox="0 0 14 23" version="1.1" xmlns="http://www.w3.org/2000/svg" xmlns:xlink="http://www.w3.org/1999/xlink">
<title>Rectangle</title>
<desc>Created using Figma</desc>
<g id="Canvas" transform="translate(-6474 247)">
<g id="Rectangle">
<mask id="mask0_outline_ins">
<use xlink:href="#path0_fill" fill="white" transform="translate(6474 -247)"/>
</mask>
<g mask="url(#mask0_outline_ins)">
<use xlink:href="#path1_stroke_2x" transform="translate(6474 -247)"/>
</g>
</g>
</g>
<defs>
<path id="path0_fill" d="M 0 0L 14 0L 14 23L 7 16L 0 23L 0 0Z"/>
<path id="path1_stroke_2x" d="M 0 0L 0 -1L -1 -1L -1 0L 0 0ZM 14 0L 15 0L 15 -1L 14 -1L 14 0ZM 14 23L 13.2929 23.7071L 15 25.4142L 15 23L 14 23ZM 0 23L -1 23L -1 25.4142L 0.707107 23.7071L 0 23ZM 7 16L 7.70711 15.2929L 7 14.5858L 6.29289 15.2929L 7 16ZM 0 1L 14 1L 14 -1L 0 -1L 0 1ZM 13 0L 13 23L 15 23L 15 0L 13 0ZM 1 23L 1 0L -1 0L -1 23L 1 23ZM 14.7071 22.2929L 7.70711 15.2929L 6.29289 16.7071L 13.2929 23.7071L 14.7071 22.2929ZM 6.29289 15.2929L -0.707107 22.2929L 0.707107 23.7071L 7.70711 16.7071L 6.29289 15.2929Z"/>
</defs>
</svg>
