<svg width="27" height="22" viewBox="0 0 27 22" version="1.1" xmlns="http://www.w3.org/2000/svg" xmlns:xlink="http://www.w3.org/1999/xlink">
<title>twitter</title>
<desc>Created using Figma</desc>
<g id="Canvas" transform="translate(4636 -348)">
<g id="twitter">
<g id="Vector">
<use xlink:href="#path0_fill" transform="translate(-4636 348)" />
</g>
</g>
</g>
<defs>
<path id="path0_fill" d="M 26.6764 2.58325C 25.6914 3.01685 24.6397 3.31204 23.5295 3.44545C 24.6597 2.7667 25.5295 1.69437 25.9385 0.416923C 24.8801 1.03397 23.7064 1.48425 22.4577 1.7344C 21.4593 0.667077 20.0369 -6.20269e-08 18.4576 -6.20269e-08C 15.4325 -6.20269e-08 12.9784 2.45151 12.9784 5.47003C 12.9784 5.90363 13.0285 6.32055 13.1203 6.7208C 8.56603 6.504 4.52759 4.31932 1.82473 1.01729C 1.3506 1.81945 1.08348 2.75336 1.08348 3.77065C 1.08348 5.67182 2.05177 7.34451 3.5209 8.32678C 2.62273 8.29843 1.77631 8.05161 1.03841 7.64303L 1.03841 7.70974C 1.03841 10.3614 2.92491 12.5761 5.43411 13.0797C 4.97334 13.2031 4.48919 13.2698 3.99002 13.2698C 3.63944 13.2698 3.30554 13.2365 2.97165 13.1731C 3.67283 15.3478 5.69288 16.9304 8.09691 16.9754C 6.22711 18.443 3.85647 19.3169 1.30218 19.3169C 0.868122 19.3169 0.434061 19.2919 -4.72661e-10 19.2418C 2.43742 20.7928 5.3089 21.7 8.41411 21.7C 18.4977 21.7 24.0069 13.3615 24.0069 6.14044C 24.0069 5.90696 24.0069 5.67349 23.9902 5.44001C 25.0587 4.67287 25.9936 3.70561 26.7282 2.60493L 26.6764 2.58325Z"/>
</defs>
</svg>
