<svg width="335" height="332" viewBox="0 0 335 332" version="1.1" xmlns="http://www.w3.org/2000/svg" xmlns:xlink="http://www.w3.org/1999/xlink">
<title>&#208;&#175;</title>
<desc>Created using Figma</desc>
<g id="Canvas" transform="translate(-19589 -2476)">
<g id="&#208;&#175;">
<g id="&#208;&#175;">
<mask id="mask0_outline_ins">
<use xlink:href="#path0_fill" fill="white" transform="translate(19589 2476)"/>
<use xlink:href="#path1_fill" fill="white" transform="translate(19589 2476)"/>
<use xlink:href="#path2_fill" fill="white" transform="translate(19589 2476)"/>
</mask>
<g mask="url(#mask0_outline_ins)">
<use xlink:href="#path3_stroke_2x" transform="translate(19589 2476)" fill="#C8684C"/>
</g>
</g>
</g>
</g>
<defs>
<path id="path0_fill" d="M 335 0.751094L 293.624 0.751094L 293.624 332L 335 332L 335 0.751094Z"/>
<path id="path1_fill" d="M 162.025 0C 106.373 0 61.0988 45.3066 61.0988 100.995C 61.0988 156.684 106.373 201.994 162.025 201.994C 217.673 201.994 262.95 156.684 262.95 100.995C 262.95 45.3066 217.673 0 162.025 0ZM 162.025 163.964C 127.328 163.964 99.1016 135.717 99.1016 100.995C 99.1016 66.277 127.328 38.0301 162.025 38.0301C 196.721 38.0301 224.948 66.277 224.948 100.995C 224.948 135.717 196.721 163.964 162.025 163.964Z"/>
<path id="path2_fill" d="M 41.3755 289.466L 0 289.466L 0 330.872L 41.3755 330.872L 41.3755 289.466Z"/>
<path id="path3_stroke_2x" d="M 293.624 0.751094L 293.624 -0.248906L 292.624 -0.248906L 292.624 0.751094L 293.624 0.751094ZM 335 0.751094L 336 0.751094L 336 -0.248906L 335 -0.248906L 335 0.751094ZM 335 332L 335 333L 336 333L 336 332L 335 332ZM 293.624 332L 292.624 332L 292.624 333L 293.624 333L 293.624 332ZM 0 289.466L 0 288.466L -1 288.466L -1 289.466L 0 289.466ZM 41.3755 289.466L 42.3755 289.466L 42.3755 288.466L 41.3755 288.466L 41.3755 289.466ZM 41.3755 330.872L 41.3755 331.872L 42.3755 331.872L 42.3755 330.872L 41.3755 330.872ZM 0 330.872L -1 330.872L -1 331.872L 0 331.872L 0 330.872ZM 293.624 1.75109L 335 1.75109L 335 -0.248906L 293.624 -0.248906L 293.624 1.75109ZM 334 0.751094L 334 332L 336 332L 336 0.751094L 334 0.751094ZM 335 331L 293.624 331L 293.624 333L 335 333L 335 331ZM 294.624 332L 294.624 0.751094L 292.624 0.751094L 292.624 332L 294.624 332ZM 162.025 -1C 105.82 -1 60.0988 44.755 60.0988 100.995L 62.0988 100.995C 62.0988 45.8582 106.926 1 162.025 1L 162.025 -1ZM 60.0988 100.995C 60.0988 157.236 105.82 202.994 162.025 202.994L 162.025 200.994C 106.926 200.994 62.0988 156.133 62.0988 100.995L 60.0988 100.995ZM 162.025 202.994C 218.226 202.994 263.95 157.236 263.95 100.995L 261.95 100.995C 261.95 156.133 217.12 200.994 162.025 200.994L 162.025 202.994ZM 263.95 100.995C 263.95 44.7549 218.226 -1 162.025 -1L 162.025 1C 217.12 1 261.95 45.8582 261.95 100.995L 263.95 100.995ZM 162.025 162.964C 127.881 162.964 100.102 135.165 100.102 100.995L 98.1016 100.995C 98.1016 136.269 126.775 164.964 162.025 164.964L 162.025 162.964ZM 100.102 100.995C 100.102 66.8287 127.881 39.0301 162.025 39.0301L 162.025 37.0301C 126.775 37.0301 98.1016 65.7254 98.1016 100.995L 100.102 100.995ZM 162.025 39.0301C 196.168 39.0301 223.948 66.8287 223.948 100.995L 225.948 100.995C 225.948 65.7254 197.274 37.0301 162.025 37.0301L 162.025 39.0301ZM 223.948 100.995C 223.948 135.165 196.168 162.964 162.025 162.964L 162.025 164.964C 197.274 164.964 225.948 136.269 225.948 100.995L 223.948 100.995ZM 0 290.466L 41.3755 290.466L 41.3755 288.466L 0 288.466L 0 290.466ZM 40.3755 289.466L 40.3755 330.872L 42.3755 330.872L 42.3755 289.466L 40.3755 289.466ZM 41.3755 329.872L 0 329.872L 0 331.872L 41.3755 331.872L 41.3755 329.872ZM 1 330.872L 1 289.466L -1 289.466L -1 330.872L 1 330.872Z"/>
</defs>
</svg>
