<svg width="16" height="12" viewBox="0 0 16 12" version="1.1" xmlns="http://www.w3.org/2000/svg" xmlns:xlink="http://www.w3.org/1999/xlink">
<title>youtube</title>
<desc>Created using Figma</desc>
<g id="Canvas" transform="translate(-8464 -10973)">
<g id="youtube">
<g id="Vector">
<use xlink:href="#path0_fill" transform="translate(8464 10973)" />
</g>
</g>
</g>
<defs>
<path id="path0_fill" fill-rule="evenodd" d="M 0 5.021C 0 3.727 0.16 2.431 0.16 2.431C 0.16 2.431 0.316 1.331 0.796 0.844C 1.404 0.207 2.204 0.227 2.56 0.16C 3.84 0.036 8 -1.18256e-07 8 -1.18256e-07C 8 -1.18256e-07 11.362 0.00400001 13.6 0.166C 13.914 0.204 14.596 0.206 15.204 0.844C 15.684 1.33 15.84 2.432 15.84 2.432C 15.84 2.432 16 3.726 16 5.022L 16 6.28C 16 7.576 15.84 8.87 15.84 8.87C 15.84 8.87 15.684 9.972 15.204 10.458C 14.596 11.096 13.914 11.098 13.6 11.136C 11.362 11.298 8 11.302 8 11.302C 8 11.302 3.84 11.265 2.56 11.142C 2.204 11.075 1.404 11.095 0.796 10.458C 0.316 9.971 0.16 8.871 0.16 8.871C 0.16 8.871 0 7.576 0 6.281L 0 5.021ZM 6.348 7.751L 6.348 3.256L 10.671 5.511L 6.351 7.751L 6.348 7.751Z"/>
</defs>
</svg>
