<?xml version="1.0" encoding="utf-8"?>
<!-- Generator: Adobe Illustrator 16.0.0, SVG Export Plug-In . SVG Version: 6.00 Build 0)  -->
<!DOCTYPE svg PUBLIC "-//W3C//DTD SVG 1.1//EN" "http://www.w3.org/Graphics/SVG/1.1/DTD/svg11.dtd">
<svg version="1.1" id="Layer_1" xmlns="http://www.w3.org/2000/svg" xmlns:xlink="http://www.w3.org/1999/xlink" x="0px" y="0px"
	 width="130px" height="30.838px" viewBox="0 0 130 30.838" enable-background="new 0 0 130 30.838" xml:space="preserve">
<path fill="#2F2F2F" d="M0,26.537h3.317V0H0V26.537z M32.438,26.537h3.316V0h-3.316V26.537z M39.071,26.537h3.318V0h-3.318V26.537z
	 M12.919,26.537h3.318L8.903,0H5.586L12.919,26.537z M18.156,19.902l1.641-5.727L15.712,0h-3.317L18.156,19.902z M30.168,0h-3.317
	l-7.332,26.537h3.316L30.168,0z"/>
<path fill="#2F2F2F" d="M61.055,15.976c1.206,0.022,2.34,0.093,3.167,0.892c0.873-0.541,1.796-0.986,2.647-1.174v1.644h-2.152
	c0.308,0.422,0.473,1.08,0.473,1.901c0,2.348-2.175,3.357-4.135,3.357c-0.779,0-1.206-0.07-1.206-0.07s-0.354,0.611-0.354,0.917
	c0,1.596,6.5,0.869,6.5,4.318c0,2.466-2.979,3.077-4.87,3.077c-1.819,0-4.584-0.469-4.584-2.63c0-1.62,1.418-2.255,2.693-2.746
	c-0.637-0.165-1.134-0.776-1.134-1.41c0-0.656,0.781-1.268,1.277-1.667c-1.49-0.353-2.436-1.785-2.436-3.146
	C56.943,16.961,59.094,15.976,61.055,15.976L61.055,15.976z M64.058,28.208c-0.142-1.972-2.932-2.23-4.35-2.489
	c-0.826,0.541-1.229,1.057-1.229,2.065c0,1.692,1.583,2.208,3.001,2.208C62.805,29.992,64.058,29.592,64.058,28.208L64.058,28.208z
	 M61.055,21.681c1.464,0,2.268-1.104,2.268-2.442c0-1.503-0.85-2.371-2.268-2.371c-1.653,0-2.245,1.103-2.245,2.371
	C58.81,20.74,59.614,21.681,61.055,21.681L61.055,21.681z M68.854,26.541V16.209h1.773v10.332H68.854z M68.476,13.228
	c0.023-0.799,0.615-1.244,1.324-1.244c0.778,0,1.275,0.539,1.275,1.244c0,0.752-0.614,1.221-1.275,1.221
	C69.019,14.448,68.476,13.956,68.476,13.228L68.476,13.228z M81.617,16.702l1.653-0.681v-1.808l1.89-0.822v2.817h3.19v1.059h-3.19
	V23.3c0.023,1.199,0.285,2.208,1.56,2.208c0.97,0,1.821-1.034,1.821-1.034l0.259,0.188c0,0-0.945,2.113-2.954,2.113
	c-1.819,0-2.575-1.291-2.575-2.911v-6.597h-1.653V16.702z M98.417,24.616c0,0-1.181,2.159-3.497,2.159
	c-3.379,0-5.011-2.489-5.011-5.447c0-3.146,1.514-5.353,4.704-5.353c2.435,0,3.924,1.525,3.924,3.873c0,0.611-0.12,1.409-0.12,1.409
	h-6.545c0.07,2.208,1.183,4.25,3.569,4.25c1.772,0,2.67-1.222,2.67-1.222L98.417,24.616z M94.567,16.913
	c-2.081,0-2.529,1.762-2.647,3.405h4.584c0,0,0.048-0.117,0.048-0.28C96.552,18.464,96.055,16.913,94.567,16.913L94.567,16.913z
	 M103.853,17.713c-0.638,0.398-0.85,0.938-1.203,1.573v7.255h-1.773V16.209h1.773v1.902h0.094c0.614-1.15,0.993-2.136,3.852-2.136
	v1.737H103.853z M107.99,13.228c0.022-0.751,0.661-1.244,1.322-1.244c0.804,0,1.348,0.539,1.348,1.244
	c0,0.799-0.662,1.221-1.348,1.221C108.604,14.448,107.99,13.909,107.99,13.228L107.99,13.228z M108.438,26.541V16.209h1.773v10.332
	H108.438z M54.201,23.253c0,1.644,0.473,3.288,0.473,3.288c-0.566,0-1.772,0-1.772,0s-0.354-1.244-0.354-2.114
	c-0.402,1.457-1.773,2.349-3.167,2.349c-1.654,0-2.859-1.244-2.859-2.818c0-3.004,3.875-3.074,5.908-3.217v-1.596
	c0-1.762-0.944-2.231-1.772-2.231c-2.126,0-2.954,2.114-2.954,2.114l-0.45-0.117c0,0,0.802-2.935,3.876-2.935
	c2.292,0,3.071,1.175,3.071,3.263V23.253z M50.184,25.508c1.206-0.141,1.867-0.822,2.245-1.784v-2.183
	c-1.749,0.022-3.923,0.211-3.923,2.183C48.506,24.803,49.168,25.508,50.184,25.508L50.184,25.508z M76.417,25.836
	c1.063,0,2.009-0.563,2.009-1.644c0-2.349-4.939-2.229-4.939-5.682c0-1.715,1.795-2.535,3.262-2.535
	c2.386,0,2.977,2.229,2.977,2.229l-0.472,0.235c0,0-0.733-1.527-2.363-1.527c-0.828,0-1.536,0.611-1.536,1.363
	c0,2.277,4.963,2.347,4.963,5.447c0,2.042-2.128,3.052-3.899,3.052c-2.481,0-3.097-2.583-3.097-2.583l0.474-0.235
	C73.794,23.957,74.55,25.836,76.417,25.836L76.417,25.836z M116.001,25.508c1.206-0.141,1.867-0.822,2.246-1.784v-2.183
	c-1.749,0.022-3.924,0.211-3.924,2.183C114.323,24.803,114.985,25.508,116.001,25.508L116.001,25.508z M118.247,19.145
	c0-1.737-0.946-2.207-1.773-2.207c-2.127,0-2.955,2.113-2.955,2.113l-0.448-0.118c0,0,0.804-2.935,3.877-2.935
	c2.291,0,3.071,1.174,3.071,3.264v3.991c0,1.644,0.473,3.288,0.473,3.288c-0.566,0-1.771,0-1.771,0s-0.355-1.244-0.355-2.114
	c-0.402,1.457-1.773,2.349-3.167,2.349c-1.653,0-2.858-1.244-2.858-2.818c0-3.004,3.875-3.074,5.908-3.217V19.145z"/>
</svg>
