<svg width="20" height="21" viewBox="0 0 20 21" version="1.1" xmlns="http://www.w3.org/2000/svg" xmlns:xlink="http://www.w3.org/1999/xlink">
<title>Component</title>
<desc>Created using Figma</desc>
<g id="Canvas" transform="translate(-8038 378)">
<g id="Component">
<g id="Subtract">
<use xlink:href="#path0_fill" transform="translate(8038 -378)"/>
</g>
<g id="Rectangle 2">
<use xlink:href="#path1_fill" transform="matrix(0.707107 -0.707107 0.707107 0.707107 8049 -364.586)"/>
</g>
</g>
</g>
<defs>
<path id="path0_fill" fill-rule="evenodd" d="M 8 16C 12.4185 16 16 12.4183 16 8C 16 3.58173 12.4185 0 8 0C 3.58154 0 0 3.58173 0 8C 0 12.4183 3.58154 16 8 16ZM 8 14C 11.3135 14 14 11.3137 14 8C 14 4.68628 11.3135 2 8 2C 4.68652 2 2 4.68628 2 8C 2 11.3137 4.68652 14 8 14Z"/>
<path id="path1_fill" d="M 0 0L 2 0L 2 10.4655L 0 10.4655L 0 0Z"/>
</defs>
</svg>
