<?xml version="1.0" encoding="UTF-8"?><!DOCTYPE svg PUBLIC "-//W3C//DTD SVG 1.1//EN" "http://www.w3.org/Graphics/SVG/1.1/DTD/svg11.dtd"><svg xmlns="http://www.w3.org/2000/svg" xmlns:xlink="http://www.w3.org/1999/xlink"><defs><path id="filter-a" d="M0 0h12v2H0V0z"/><path id="filter-b" d="M0 0h4v2H0V0z"/><path id="filter-c" d="M0 0h2v6H0V0z"/><path id="flag-a" d="M0 0h14v23l-7-7-7 7V0z"/><path id="flag-c" d="M0 0v-1h-1v1h1zm14 0h1v-1h-1v1zm0 23l-.707.707L15 25.414V23h-1zM0 23h-1v2.414l1.707-1.707L0 23zm7-7l.707-.707L7 14.586l-.707.707L7 16zM0 1h14v-2H0v2zm13-1v23h2V0h-2zM1 23V0h-2v23h2zm13.707-.707l-7-7-1.414 1.414 7 7 1.414-1.414zm-8.414-7l-7 7 1.414 1.414 7-7-1.414-1.414z"/><path id="login-a" d="M11 16H0v-3h2v1h7V2H2v1H0V0h11v16z"/><path id="login-b" d="M11 3H3.828l1.293-1.293A.999.999 0 1 0 3.707.293L0 4l3.707 3.707a.997.997 0 0 0 1.414 0 .999.999 0 0 0 0-1.414L3.828 5H11V3z"/><path id="logo-mob-a" d="M0 35.191h4.38V0H0v35.191zm42.843 0h4.38V0h-4.38v35.191zm8.76 0h4.383V0h-4.383v35.191zm-34.54 0h4.382L11.76 0H7.378l9.685 35.191zm6.917-8.799l2.167-7.594L20.752 0H16.37l7.609 26.392zM39.844 0h-4.38L25.78 35.191h4.38L39.843 0z"/><path id="logout-a" d="M11 16H0v-3h2v1h7V2H2v1H0V0h11v16z"/><path id="logout-b" d="M11 3H3.828l1.293-1.293A.999.999 0 1 0 3.707.293L0 4l3.707 3.707a.997.997 0 0 0 1.414 0 .999.999 0 0 0 0-1.414L3.828 5H11V3z"/><path id="pause-small-a" d="M3 0H0v10h3V0z"/><path id="pause-a" d="M0 0h8v36H0V0z"/><path id="play-small-a" d="M0 0l12 5.368L0 10.2V0z"/><path id="play-a" d="M0 0l40.415 17.29L0 35.66V0z"/><path id="reload-small-a" d="M8 0a7.95 7.95 0 0 0-5.644 2.356L0 0v7h7L3.767 3.767A5.96 5.96 0 0 1 8 2c3.308 0 6 2.692 6 6s-2.692 6-6 6c-2.967 0-5.431-2.167-5.91-5H.069C.562 12.945 3.921 16 8 16A8 8 0 0 0 8 0z"/><path id="reload-a" d="M16.889 0c-4.664 0-8.86 1.915-11.915 4.974L0 0v14.778h14.778L7.953 7.953c2.29-2.297 5.442-3.73 8.936-3.73 6.983 0 12.667 5.682 12.667 12.666 0 6.983-5.684 12.667-12.667 12.667-6.264 0-11.466-4.575-12.477-10.556H.146c1.04 8.328 8.132 14.778 16.743 14.778 9.327 0 16.889-7.562 16.889-16.89C33.778 7.563 26.216 0 16.888 0z"/><path id="search-a" fill-rule="evenodd" d="M8 16A8 8 0 1 0 8 0a8 8 0 0 0 0 16zm0-2A6 6 0 1 0 8 2a6 6 0 0 0 0 12z"/><path id="search-b" d="M0 0h2v10.466H0V0z"/><path id="svg-a" d="M0 0h12v2H0V0z"/><path id="svg-b" d="M0 0h4v2H0V0z"/><path id="svg-c" d="M0 0h2v6H0V0z"/><path id="svg-d" d="M0 0h14v23l-7-7-7 7V0z"/><path id="svg-f" d="M0 0v-1h-1v1h1zm14 0h1v-1h-1v1zm0 23l-.707.707L15 25.414V23h-1zM0 23h-1v2.414l1.707-1.707L0 23zm7-7l.707-.707L7 14.586l-.707.707L7 16zM0 1h14v-2H0v2zm13-1v23h2V0h-2zM1 23V0h-2v23h2zm13.707-.707l-7-7-1.414 1.414 7 7 1.414-1.414zm-8.414-7l-7 7 1.414 1.414 7-7-1.414-1.414z"/><path id="svg-g" d="M11 16H0v-3h2v1h7V2H2v1H0V0h11v16z"/><path id="svg-h" d="M11 3H3.828l1.293-1.293A.999.999 0 1 0 3.707.293L0 4l3.707 3.707a.997.997 0 0 0 1.414 0 .999.999 0 0 0 0-1.414L3.828 5H11V3z"/><path id="svg-i" d="M0 35.191h4.38V0H0v35.191zm42.843 0h4.38V0h-4.38v35.191zm8.76 0h4.383V0h-4.383v35.191zm-34.54 0h4.382L11.76 0H7.378l9.685 35.191zm6.917-8.799l2.167-7.594L20.752 0H16.37l7.609 26.392zM39.844 0h-4.38L25.78 35.191h4.38L39.843 0z"/><path id="svg-j" d="M11 16H0v-3h2v1h7V2H2v1H0V0h11v16z"/><path id="svg-k" d="M11 3H3.828l1.293-1.293A.999.999 0 1 0 3.707.293L0 4l3.707 3.707a.997.997 0 0 0 1.414 0 .999.999 0 0 0 0-1.414L3.828 5H11V3z"/><path id="svg-l" fill-rule="evenodd" d="M8 16A8 8 0 1 0 8 0a8 8 0 0 0 0 16zm0-2A6 6 0 1 0 8 2a6 6 0 0 0 0 12z"/><path id="svg-m" d="M0 0h2v10.466H0V0z"/></defs><symbol id="filter" viewBox="0 0 22 21"><title>Group</title><desc>Created using Figma</desc><use xlink:href="#filter-a" transform="translate(1 3)"/><use xlink:href="#filter-b" transform="translate(17 3)"/><use xlink:href="#filter-a" transform="translate(9 10)"/><use xlink:href="#filter-a" transform="translate(1 17)"/><use xlink:href="#filter-c" transform="translate(13 1)"/><use xlink:href="#filter-b" transform="translate(17 17)"/><use xlink:href="#filter-b" transform="translate(1 10)"/><use xlink:href="#filter-c" transform="translate(13 15)"/><use xlink:href="#filter-c" transform="translate(5 8)"/></symbol><symbol id="flag" viewBox="0 0 14 23"><title>Rectangle</title><desc>Created using Figma</desc><g transform="translate(-6474 247)"><mask id="flag-b"><use xlink:href="#flag-a" fill="#fff" transform="translate(6474 -247)"/></mask><g mask="url(#flag-b)"><use xlink:href="#flag-c" transform="translate(6474 -247)"/></g></g></symbol><symbol id="login" viewBox="0 0 16 16"><title>Login</title><desc>Created using Figma</desc><use xlink:href="#login-a" transform="translate(5)"/><use xlink:href="#login-b" transform="matrix(-1 0 0 1 11 4)"/></symbol><symbol id="logo-mob" viewBox="0 0 70 38"><title>logo_black</title><desc>Created using Figma</desc><use xlink:href="#logo-mob-a" transform="translate(0 2.81)"/></symbol><symbol id="logo" viewBox="0 0 130 30.838"><path fill="#2F2F2F" d="M0 26.537h3.317V0H0v26.537zm32.438 0h3.316V0h-3.316v26.537zm6.633 0h3.318V0h-3.318v26.537zm-26.152 0h3.318L8.903 0H5.586l7.333 26.537zm5.237-6.635l1.641-5.727L15.712 0h-3.317l5.761 19.902zM30.168 0h-3.317l-7.332 26.537h3.316L30.168 0zM61.055 15.976c1.206.022 2.34.093 3.167.892.873-.541 1.796-.986 2.647-1.174v1.644h-2.152c.308.422.473 1.08.473 1.901 0 2.348-2.175 3.357-4.135 3.357-.779 0-1.206-.07-1.206-.07s-.354.611-.354.917c0 1.596 6.5.869 6.5 4.318 0 2.466-2.979 3.077-4.87 3.077-1.819 0-4.584-.469-4.584-2.63 0-1.62 1.418-2.255 2.693-2.746-.637-.165-1.134-.776-1.134-1.41 0-.656.781-1.268 1.277-1.667-1.49-.353-2.436-1.785-2.436-3.146.002-2.278 2.153-3.263 4.114-3.263zm3.003 12.232c-.142-1.972-2.932-2.23-4.35-2.489-.826.541-1.229 1.057-1.229 2.065 0 1.692 1.583 2.208 3.001 2.208 1.325 0 2.578-.4 2.578-1.784zm-3.003-6.527c1.464 0 2.268-1.104 2.268-2.442 0-1.503-.85-2.371-2.268-2.371-1.653 0-2.245 1.103-2.245 2.371 0 1.501.804 2.442 2.245 2.442zm7.799 4.86V16.209h1.773v10.332h-1.773zm-.378-13.313c.023-.799.615-1.244 1.324-1.244.778 0 1.275.539 1.275 1.244 0 .752-.614 1.221-1.275 1.221-.781-.001-1.324-.493-1.324-1.221zm13.141 3.474l1.653-.681v-1.808l1.89-.822v2.817h3.19v1.059h-3.19V23.3c.023 1.199.285 2.208 1.56 2.208.97 0 1.821-1.034 1.821-1.034l.259.188s-.945 2.113-2.954 2.113c-1.819 0-2.575-1.291-2.575-2.911v-6.597h-1.653v-.565zm16.8 7.914s-1.181 2.159-3.497 2.159c-3.379 0-5.011-2.489-5.011-5.447 0-3.146 1.514-5.353 4.704-5.353 2.435 0 3.924 1.525 3.924 3.873 0 .611-.12 1.409-.12 1.409h-6.545c.07 2.208 1.183 4.25 3.569 4.25 1.772 0 2.67-1.222 2.67-1.222l.306.331zm-3.85-7.703c-2.081 0-2.529 1.762-2.647 3.405h4.584s.048-.117.048-.28c0-1.574-.497-3.125-1.985-3.125zm9.286.8c-.638.398-.85.938-1.203 1.573v7.255h-1.773V16.209h1.773v1.902h.094c.614-1.15.993-2.136 3.852-2.136v1.737h-2.743zm4.137-4.485c.022-.751.661-1.244 1.322-1.244.804 0 1.348.539 1.348 1.244 0 .799-.662 1.221-1.348 1.221-.708-.001-1.322-.54-1.322-1.221zm.448 13.313V16.209h1.773v10.332h-1.773zm-54.237-3.288c0 1.644.473 3.288.473 3.288h-1.772s-.354-1.244-.354-2.114c-.402 1.457-1.773 2.349-3.167 2.349-1.654 0-2.859-1.244-2.859-2.818 0-3.004 3.875-3.074 5.908-3.217v-1.596c0-1.762-.944-2.231-1.772-2.231-2.126 0-2.954 2.114-2.954 2.114l-.45-.117s.802-2.935 3.876-2.935c2.292 0 3.071 1.175 3.071 3.263v4.014zm-4.017 2.255c1.206-.141 1.867-.822 2.245-1.784v-2.183c-1.749.022-3.923.211-3.923 2.183 0 1.079.662 1.784 1.678 1.784zm26.233.328c1.063 0 2.009-.563 2.009-1.644 0-2.349-4.939-2.229-4.939-5.682 0-1.715 1.795-2.535 3.262-2.535 2.386 0 2.977 2.229 2.977 2.229l-.472.235s-.733-1.527-2.363-1.527c-.828 0-1.536.611-1.536 1.363 0 2.277 4.963 2.347 4.963 5.447 0 2.042-2.128 3.052-3.899 3.052-2.481 0-3.097-2.583-3.097-2.583l.474-.235c-.002.001.754 1.88 2.621 1.88zm39.584-.328c1.206-.141 1.867-.822 2.246-1.784v-2.183c-1.749.022-3.924.211-3.924 2.183 0 1.079.662 1.784 1.678 1.784zm2.246-6.363c0-1.737-.946-2.207-1.773-2.207-2.127 0-2.955 2.113-2.955 2.113l-.448-.118s.804-2.935 3.877-2.935c2.291 0 3.071 1.174 3.071 3.264v3.991c0 1.644.473 3.288.473 3.288h-1.771s-.355-1.244-.355-2.114c-.402 1.457-1.773 2.349-3.167 2.349-1.653 0-2.858-1.244-2.858-2.818 0-3.004 3.875-3.074 5.908-3.217v-1.596z"/></symbol><symbol id="logout" viewBox="0 0 16 16"><title>Logout</title><desc>Created using Figma</desc><use xlink:href="#logout-a" transform="translate(5)"/><use xlink:href="#logout-b" transform="translate(0 4)"/></symbol><symbol id="pause-small" viewBox="0 0 8 10"><title>&#xD0;&#x9F;&#xD0;&#xB0;&#xD1;&#x83;&#xD0;&#xB7;&#xD0;&#xB0;</title><desc>Created using Figma</desc><use xlink:href="#pause-small-a" fill="#C8684C"/><use xlink:href="#pause-small-a" transform="translate(5)" fill="#C8684C"/></symbol><symbol id="pause" viewBox="0 0 23 36"><title>&#xD0;&#x9F;&#xD0;&#xB0;&#xD1;&#x83;&#xD0;&#xB7;&#xD0;&#xB0;</title><desc>Created using Figma</desc><use xlink:href="#pause-a" fill="#FFF" fill-opacity=".8"/><use xlink:href="#pause-a" transform="translate(15)" fill="#FFF" fill-opacity=".8"/></symbol><symbol id="play-small" viewBox="0 0 12 11"><title>Rectangle</title><desc>Created using Figma</desc><use xlink:href="#play-small-a" fill="#C8684C"/></symbol><symbol id="play" viewBox="0 0 41 36"><title>&#xD0;&#x9F;&#xD0;&#xBB;&#xD0;&#xB5;&#xD0;&#xB9;</title><desc>Created using Figma</desc><use xlink:href="#play-a" fill="#FFF" fill-opacity=".8"/></symbol><symbol id="reload-small" viewBox="0 0 16 16"><title>Vector</title><desc>Created using Figma</desc><use xlink:href="#reload-small-a" transform="rotate(90 8 8)" fill="#C8684C"/></symbol><symbol id="reload" viewBox="0 0 34 34"><title>Vector</title><desc>Created using Figma</desc><use xlink:href="#reload-a" transform="rotate(90 16.89 17)" fill="#FFF" fill-opacity=".8"/></symbol><symbol id="search" viewBox="0 0 20 21"><title>Component</title><desc>Created using Figma</desc><use xlink:href="#search-a"/><use xlink:href="#search-b" transform="rotate(-45 21.692 -6.571)"/></symbol><symbol id="svg"/></svg>