<svg width="16" height="16" viewBox="0 0 16 16" fill="none" xmlns="http://www.w3.org/2000/svg">
    <path fill-rule="evenodd" clip-rule="evenodd" d="M9.41413 8.00001L12.7071 4.70701C13.0981 4.31601 13.0981 3.68401 12.7071 3.29301C12.3161 2.90201 11.6841 2.90201 11.2931 3.29301L8.00013 6.58601L4.70713 3.29301C4.31613 2.90201 3.68413 2.90201 3.29313 3.29301C2.90213 3.68401 2.90213 4.31601 3.29313 4.70701L6.58613 8.00001L3.29313 11.293C2.90213 11.684 2.90213 12.316 3.29313 12.707C3.48813 12.902 3.74413 13 4.00013 13C4.25613 13 4.51213 12.902 4.70713 12.707L8.00013 9.41401L11.2931 12.707C11.4881 12.902 11.7441 13 12.0001 13C12.2561 13 12.5121 12.902 12.7071 12.707C13.0981 12.316 13.0981 11.684 12.7071 11.293L9.41413 8.00001Z" fill="#F44336"/>
</svg>
