<svg width="48" height="24" viewBox="0 0 48 24" fill="none" xmlns="http://www.w3.org/2000/svg">
    <path fill-rule="evenodd" clip-rule="evenodd" d="M6 11.7491C6 11.5501 6.07902 11.3594 6.21967 11.2187C6.36032 11.0781 6.55109 10.9991 6.75 10.9991L15.4395 10.9991L12.219 7.78005C12.1493 7.71032 12.094 7.62754 12.0562 7.53643C12.0185 7.44532 11.9991 7.34767 11.9991 7.24905C11.9991 7.15044 12.0185 7.05279 12.0562 6.96168C12.094 6.87057 12.1493 6.78778 12.219 6.71805C12.2887 6.64832 12.3715 6.59301 12.4626 6.55527C12.5537 6.51753 12.6514 6.49811 12.75 6.49811C12.8486 6.49811 12.9463 6.51753 13.0374 6.55527C13.1285 6.59301 13.2113 6.64832 13.281 6.71805L17.781 11.2181C17.8508 11.2877 17.9063 11.3705 17.9441 11.4616C17.9819 11.5527 18.0013 11.6504 18.0013 11.7491C18.0013 11.8477 17.9819 11.9454 17.9441 12.0365C17.9063 12.1276 17.8508 12.2104 17.781 12.2801L13.281 16.7801C13.2113 16.8498 13.1285 16.9051 13.0374 16.9428C12.9463 16.9806 12.8486 17 12.75 17C12.6514 17 12.5537 16.9806 12.4626 16.9428C12.3715 16.9051 12.2887 16.8498 12.219 16.7801C12.0782 16.6392 11.9991 16.4482 11.9991 16.2491C11.9991 16.1504 12.0185 16.0528 12.0562 15.9617C12.094 15.8706 12.1493 15.7878 12.219 15.7181L15.4395 12.4991L6.75 12.4991C6.55109 12.4991 6.36032 12.42 6.21967 12.2794C6.07902 12.1387 6 11.948 6 11.7491Z" fill="#B4B4BB"/>
    <path d="M24 0H42C45.3137 0 48 2.68629 48 6V18C48 21.3137 45.3137 24 42 24H24V0Z" fill="#B4B4BB"/>
    <path fill-rule="evenodd" clip-rule="evenodd" d="M35.0005 5.25C35.1994 5.25 35.3901 5.32902 35.5308 5.46967C35.6714 5.61032 35.7505 5.80109 35.7505 6V14.6895L38.9695 11.469C39.0392 11.3993 39.122 11.344 39.2131 11.3062C39.3042 11.2685 39.4018 11.2491 39.5005 11.2491C39.5991 11.2491 39.6967 11.2685 39.7878 11.3062C39.8789 11.344 39.9617 11.3993 40.0315 11.469C40.1012 11.5387 40.1565 11.6215 40.1942 11.7126C40.232 11.8037 40.2514 11.9014 40.2514 12C40.2514 12.0986 40.232 12.1963 40.1942 12.2874C40.1565 12.3785 40.1012 12.4613 40.0315 12.531L35.5315 17.031C35.4618 17.1008 35.379 17.1563 35.2879 17.1941C35.1968 17.2319 35.0991 17.2513 35.0005 17.2513C34.9018 17.2513 34.8041 17.2319 34.713 17.1941C34.6219 17.1563 34.5391 17.1008 34.4695 17.031L29.9695 12.531C29.8997 12.4613 29.8444 12.3785 29.8067 12.2874C29.7689 12.1963 29.7495 12.0986 29.7495 12C29.7495 11.9014 29.7689 11.8037 29.8067 11.7126C29.8444 11.6215 29.8997 11.5387 29.9695 11.469C30.1103 11.3282 30.3013 11.2491 30.5005 11.2491C30.5991 11.2491 30.6967 11.2685 30.7878 11.3062C30.8789 11.344 30.9617 11.3993 31.0315 11.469L34.2505 14.6895V6C34.2505 5.80109 34.3295 5.61032 34.4701 5.46967C34.6108 5.32902 34.8015 5.25 35.0005 5.25Z" fill="white"/>
    <path d="M23.25 0.75H6C3.1005 0.75 0.75 3.10051 0.75 6V18C0.75 20.8995 3.1005 23.25 6 23.25H23.25V0.75Z" stroke="#B4B4BB" stroke-width="1.5"/>
</svg>
