<svg width="97" height="108" viewBox="0 0 97 108" version="1.1" xmlns="http://www.w3.org/2000/svg" xmlns:xlink="http://www.w3.org/1999/xlink">
<title>&#208;&#161;</title>
<desc>Created using Figma</desc>
<g id="Canvas" transform="translate(-25947 -7659)">
<g id="&#208;&#161;">
<g id="&#208;&#161;">
<mask id="mask0_outline_ins">
<use xlink:href="#path0_fill" fill="white" transform="translate(25947 7659)"/>
<use xlink:href="#path1_fill" fill="white" transform="translate(25947 7659)"/>
</mask>
<g mask="url(#mask0_outline_ins)">
<use xlink:href="#path2_stroke_2x" transform="translate(25947 7659)" fill="#C8684C"/>
</g>
</g>
</g>
</g>
<defs>
<path id="path0_fill" d="M 53.917 95.833C 30.804 95.833 12 77.029 12 53.917C 12 30.804 30.804 12 53.917 12C 66.819 12 78.815 17.824 86.83 27.979L 96.25 20.545C 85.944 7.488 70.515 0 53.917 0C 24.187 0 0 24.188 0 53.917C 0 83.646 24.187 107.833 53.917 107.833C 70.515 107.833 85.944 100.345 96.25 87.289L 86.831 79.853C 78.814 90.009 66.818 95.833 53.917 95.833Z"/>
<path id="path1_fill" d="M 54.9403 34.044C 61.0813 34.044 66.7923 36.817 70.6083 41.652L 80.0283 34.218C 73.9223 26.481 64.7783 22.043 54.9403 22.043C 37.3213 22.043 22.9863 36.377 22.9863 53.996C 22.9863 71.615 37.3203 85.95 54.9403 85.95C 64.7773 85.95 73.9213 81.512 80.0283 73.775L 70.6083 66.341C 66.7923 71.176 61.0813 73.949 54.9403 73.949C 43.9383 73.949 34.9863 64.998 34.9863 53.995C 34.9873 42.995 43.9383 34.044 54.9403 34.044Z"/>
<path id="path2_stroke_2x" d="M 86.83 27.979L 86.045 28.5985L 86.6646 29.3835L 87.4495 28.764L 86.83 27.979ZM 96.25 20.545L 96.8695 21.33L 97.6546 20.7104L 97.0349 19.9254L 96.25 20.545ZM 96.25 87.289L 97.0349 87.9086L 97.6545 87.1237L 96.8696 86.5041L 96.25 87.289ZM 86.831 79.853L 87.4506 79.0681L 86.6657 78.4484L 86.0461 79.2334L 86.831 79.853ZM 70.6083 41.652L 69.8234 42.2715L 70.4429 43.0564L 71.2278 42.437L 70.6083 41.652ZM 80.0283 34.218L 80.6478 35.003L 81.4328 34.3835L 80.8133 33.5985L 80.0283 34.218ZM 80.0283 73.775L 80.8133 74.3945L 81.4329 73.6095L 80.6478 72.99L 80.0283 73.775ZM 70.6083 66.341L 71.2278 65.556L 70.4429 64.9365L 69.8234 65.7214L 70.6083 66.341ZM 34.9863 53.995L 33.9863 53.9949L 33.9863 53.995L 34.9863 53.995ZM 53.917 94.833C 31.3563 94.833 13 76.4767 13 53.917L 11 53.917C 11 77.5813 30.2517 96.833 53.917 96.833L 53.917 94.833ZM 13 53.917C 13 31.3563 31.3563 13 53.917 13L 53.917 11C 30.2517 11 11 30.2517 11 53.917L 13 53.917ZM 53.917 13C 66.5119 13 78.2191 18.6831 86.045 28.5985L 87.615 27.3595C 79.4109 16.965 67.1261 11 53.917 11L 53.917 13ZM 87.4495 28.764L 96.8695 21.33L 95.6305 19.76L 86.2105 27.194L 87.4495 28.764ZM 97.0349 19.9254C 86.5398 6.62879 70.8219 -1 53.917 -1L 53.917 1C 70.2081 1 85.3482 8.34721 95.4651 21.1646L 97.0349 19.9254ZM 53.917 -1C 23.6347 -1 -1 23.6357 -1 53.917L 1 53.917C 1 24.7403 24.7393 1 53.917 1L 53.917 -1ZM -1 53.917C -1 84.1983 23.6347 108.833 53.917 108.833L 53.917 106.833C 24.7393 106.833 1 83.0937 1 53.917L -1 53.917ZM 53.917 108.833C 70.8219 108.833 86.5398 101.204 97.0349 87.9086L 95.4651 86.6694C 85.3482 99.4858 70.2081 106.833 53.917 106.833L 53.917 108.833ZM 96.8696 86.5041L 87.4506 79.0681L 86.2114 80.6379L 95.6304 88.0739L 96.8696 86.5041ZM 86.0461 79.2334C 78.2181 89.15 66.5109 94.833 53.917 94.833L 53.917 96.833C 67.1251 96.833 79.4099 90.868 87.6159 80.4726L 86.0461 79.2334ZM 54.9403 35.044C 60.7742 35.044 66.1963 37.6759 69.8234 42.2715L 71.3933 41.0324C 67.3883 35.958 61.3885 33.044 54.9403 33.044L 54.9403 35.044ZM 71.2278 42.437L 80.6478 35.003L 79.4088 33.433L 69.9888 40.867L 71.2278 42.437ZM 80.8133 33.5985C 74.5181 25.6217 65.0852 21.043 54.9403 21.043L 54.9403 23.043C 64.4715 23.043 73.3265 27.3402 79.2433 34.8375L 80.8133 33.5985ZM 54.9403 21.043C 36.7691 21.043 21.9863 35.8246 21.9863 53.996L 23.9863 53.996C 23.9863 36.9293 37.8736 23.043 54.9403 23.043L 54.9403 21.043ZM 21.9863 53.996C 21.9863 72.1672 36.768 86.95 54.9403 86.95L 54.9403 84.95C 37.8726 84.95 23.9863 71.0627 23.9863 53.996L 21.9863 53.996ZM 54.9403 86.95C 65.0842 86.95 74.5171 82.3712 80.8133 74.3945L 79.2434 73.1554C 73.3255 80.6528 64.4705 84.95 54.9403 84.95L 54.9403 86.95ZM 80.6478 72.99L 71.2278 65.556L 69.9888 67.126L 79.4088 74.56L 80.6478 72.99ZM 69.8234 65.7214C 66.1963 70.317 60.7742 72.949 54.9403 72.949L 54.9403 74.949C 61.3885 74.949 67.3883 72.035 71.3933 66.9605L 69.8234 65.7214ZM 54.9403 72.949C 44.4906 72.949 35.9863 64.4456 35.9863 53.995L 33.9863 53.995C 33.9863 65.5503 43.3861 74.949 54.9403 74.949L 54.9403 72.949ZM 35.9863 53.9951C 35.9873 43.5473 44.4906 35.044 54.9403 35.044L 54.9403 33.044C 43.3861 33.044 33.9874 42.4426 33.9863 53.9949L 35.9863 53.9951Z"/>
</defs>
</svg>
