<svg width="16" height="12" viewBox="0 0 16 12" version="1.1" xmlns="http://www.w3.org/2000/svg" xmlns:xlink="http://www.w3.org/1999/xlink">
<title>Eye 2</title>
<desc>Created using Figma</desc>
<g id="Canvas" transform="translate(-32628 -4750)">
<g id="Eye 2">
<g id="Vector">
<use xlink:href="#path0_fill" transform="translate(32628 4750)"/>
</g>
</g>
</g>
<defs>
<path id="path0_fill" d="M 8 0C 2.18182 0 0 5.81818 0 5.81818C 0 5.81818 2.18182 11.6364 8 11.6364C 13.8182 11.6364 16 5.81818 16 5.81818C 16 5.81818 13.8182 0 8 0ZM 8 10.1818C 5.58982 10.1818 3.63636 8.22836 3.63636 5.81818C 3.63636 3.408 5.58982 1.45455 8 1.45455C 10.4102 1.45455 12.3636 3.408 12.3636 5.81818C 12.3636 8.22836 10.4102 10.1818 8 10.1818ZM 8 3.63636C 9.20436 3.63636 10.1818 4.61309 10.1818 5.81818C 10.1818 7.02254 9.20436 8 8 8C 6.79491 8 5.81818 7.02254 5.81818 5.81818C 5.81818 4.61309 6.79491 3.63636 8 3.63636Z"/>
</defs>
</svg>
