<svg width="16" height="16" viewBox="0 0 16 16" version="1.1" xmlns="http://www.w3.org/2000/svg" xmlns:xlink="http://www.w3.org/1999/xlink">
<title>facebook</title>
<desc>Created using Figma</desc>
<g id="Canvas" transform="translate(-25474 1563)">
<g id="facebook">
<g id="Vector">
<use xlink:href="#path0_fill" transform="translate(25474 -1563)" fill="#4267B2"/>
</g>
</g>
</g>
<defs>
<path id="path0_fill" d="M 15.117 0L 0.883 0C 0.395 0 0 0.395 0 0.883L 0 15.117C 0 15.605 0.395 16 0.883 16L 8.546 16L 8.546 9.804L 6.46 9.804L 6.46 7.39L 8.546 7.39L 8.546 5.607C 8.546 3.541 9.808 2.417 11.652 2.417C 12.535 2.417 13.294 2.481 13.515 2.511L 13.515 4.671L 12.235 4.671C 11.235 4.671 11.04 5.151 11.04 5.851L 11.04 7.391L 13.43 7.391L 13.12 9.811L 11.04 9.811L 11.04 16L 15.117 16C 15.605 16 16 15.605 16 15.117L 16 0.883C 16 0.395 15.605 0 15.117 0Z"/>
</defs>
</svg>
