<svg width="16" height="16" viewBox="0 0 16 16" version="1.1" xmlns="http://www.w3.org/2000/svg" xmlns:xlink="http://www.w3.org/1999/xlink">
<title>Vector</title>
<desc>Created using Figma</desc>
<g id="Canvas" transform="translate(-34402 -4719)">
<g id="Vector">
<use xlink:href="#path0_fill" transform="translate(34402 4719)" fill="#E02F37"/>
</g>
</g>
<defs>
<path id="path0_fill" d="M 8 0C 3.5816 0 0 3.5816 0 8C 0 12.4184 3.5816 16 8 16C 12.4184 16 16 12.4184 16 8C 16 3.5816 12.4184 0 8 0ZM 11.7656 10.6344C 12.0784 10.9472 12.0784 11.4528 11.7656 11.7656C 11.6096 11.9216 11.4048 12 11.2 12C 10.9952 12 10.7904 11.9216 10.6344 11.7656L 8 9.1312L 5.3656 11.7656C 5.2096 11.9216 5.0048 12 4.8 12C 4.5952 12 4.3904 11.9216 4.2344 11.7656C 3.9216 11.4528 3.9216 10.9472 4.2344 10.6344L 6.8688 8L 4.2344 5.3656C 3.9216 5.0528 3.9216 4.5472 4.2344 4.2344C 4.5472 3.9216 5.0528 3.9216 5.3656 4.2344L 8 6.8688L 10.6344 4.2344C 10.9472 3.9216 11.4528 3.9216 11.7656 4.2344C 12.0784 4.5472 12.0784 5.0528 11.7656 5.3656L 9.1312 8L 11.7656 10.6344Z"/>
</defs>
</svg>
