<svg width="20" height="18" viewBox="0 0 20 18" version="1.1" xmlns="http://www.w3.org/2000/svg" xmlns:xlink="http://www.w3.org/1999/xlink">
<title>&#208;&#157;&#208;&#176; &#208;&#191;&#208;&#190;&#208;&#187;&#208;&#189;&#209;&#139;&#208;&#185; &#209;&#141;&#208;&#186;&#209;&#128;&#208;&#176;&#208;&#189;</title>
<desc>Created using Figma</desc>
<g id="Canvas" transform="translate(5452 -5718)">
<g id="&#208;&#157;&#208;&#176; &#208;&#191;&#208;&#190;&#208;&#187;&#208;&#189;&#209;&#139;&#208;&#185; &#209;&#141;&#208;&#186;&#209;&#128;&#208;&#176;&#208;&#189;">
<g id="Vector">
<use xlink:href="#path0_fill" transform="translate(-5452 5719)" fill="#FFFFFF"/>
<use xlink:href="#path1_fill" transform="translate(-5452 5719)" fill="#FFFFFF"/>
<use xlink:href="#path2_fill" transform="translate(-5452 5719)" fill="#FFFFFF"/>
<use xlink:href="#path3_fill" transform="translate(-5452 5719)" fill="#FFFFFF"/>
</g>
</g>
</g>
<defs>
<path id="path0_fill" d="M 0 0L 6 0L 6 2L 2 2L 2 5L 0 5L 0 0Z"/>
<path id="path1_fill" d="M 0 16L 6 16L 6 14L 2 14L 2 11L 0 11L 0 16Z"/>
<path id="path2_fill" d="M 20 16L 14 16L 14 14L 18 14L 18 11L 20 11L 20 16Z"/>
<path id="path3_fill" d="M 20 0L 14 0L 14 2L 18 2L 18 5L 20 5L 20 0Z"/>
</defs>
</svg>
