<svg width="468" height="423" viewBox="0 0 468 423" version="1.1" xmlns="http://www.w3.org/2000/svg" xmlns:xlink="http://www.w3.org/1999/xlink">
<title>&#208;&#149;</title>
<desc>Created using Figma</desc>
<g id="Canvas" transform="translate(-25188 -7786)">
<g id="&#208;&#149;">
<g id="&#208;&#149;">
<mask id="mask0_outline_ins">
<use xlink:href="#path0_fill" fill="white" transform="translate(25188 7786)"/>
<use xlink:href="#path1_fill" fill="white" transform="translate(25188 7786)"/>
<use xlink:href="#path2_fill" fill="white" transform="translate(25188 7786)"/>
<use xlink:href="#path3_fill" fill="white" transform="translate(25188 7786)"/>
</mask>
<g mask="url(#mask0_outline_ins)">
<use xlink:href="#path4_stroke_2x" transform="translate(25188 7786)" fill="#C8684C"/>
</g>
</g>
</g>
</g>
<defs>
<path id="path0_fill" d="M 468 0L 0 0L 0 47.7756L 468 47.7756L 468 0Z"/>
<path id="path1_fill" d="M 468 375.224L 0 375.224L 0 423L 468 423L 468 375.224Z"/>
<path id="path2_fill" d="M 0 230.679L 468 139.554L 468 90.4386L 0 181.564L 0 230.679Z"/>
<path id="path3_fill" d="M 0 293.46L 468 360.463L 468 311.348L 0 244.344L 0 293.46Z"/>
<path id="path4_stroke_2x" d="M 0 0L 0 -1L -1 -1L -1 0L 0 0ZM 468 0L 469 0L 469 -1L 468 -1L 468 0ZM 468 47.7756L 468 48.7756L 469 48.7756L 469 47.7756L 468 47.7756ZM 0 47.7756L -1 47.7756L -1 48.7756L 0 48.7756L 0 47.7756ZM 0 375.224L 0 374.224L -1 374.224L -1 375.224L 0 375.224ZM 468 375.224L 469 375.224L 469 374.224L 468 374.224L 468 375.224ZM 468 423L 468 424L 469 424L 469 423L 468 423ZM 0 423L -1 423L -1 424L 0 424L 0 423ZM 0 230.679L -1 230.679L -1 231.893L 0.191122 231.661L 0 230.679ZM 468 139.554L 468.191 140.536L 469 140.378L 469 139.554L 468 139.554ZM 468 90.4386L 469 90.4386L 469 89.2252L 467.809 89.4571L 468 90.4386ZM 0 181.564L -0.191122 180.582L -1 180.74L -1 181.564L 0 181.564ZM 0 293.46L -1 293.46L -1 294.327L -0.141725 294.45L 0 293.46ZM 468 360.463L 467.858 361.453L 469 361.617L 469 360.463L 468 360.463ZM 468 311.348L 469 311.348L 469 310.481L 468.142 310.358L 468 311.348ZM 0 244.344L 0.141725 243.354L -1 243.191L -1 244.344L 0 244.344ZM 0 1L 468 1L 468 -1L 0 -1L 0 1ZM 467 0L 467 47.7756L 469 47.7756L 469 0L 467 0ZM 468 46.7756L 0 46.7756L 0 48.7756L 468 48.7756L 468 46.7756ZM 1 47.7756L 1 0L -1 0L -1 47.7756L 1 47.7756ZM 0 376.224L 468 376.224L 468 374.224L 0 374.224L 0 376.224ZM 467 375.224L 467 423L 469 423L 469 375.224L 467 375.224ZM 468 422L 0 422L 0 424L 468 424L 468 422ZM 1 423L 1 375.224L -1 375.224L -1 423L 1 423ZM 0.191122 231.661L 468.191 140.536L 467.809 138.573L -0.191122 229.698L 0.191122 231.661ZM 469 139.554L 469 90.4386L 467 90.4386L 467 139.554L 469 139.554ZM 467.809 89.4571L -0.191122 180.582L 0.191122 182.545L 468.191 91.4202L 467.809 89.4571ZM -1 181.564L -1 230.679L 1 230.679L 1 181.564L -1 181.564ZM -0.141725 294.45L 467.858 361.453L 468.142 359.473L 0.141725 292.47L -0.141725 294.45ZM 469 360.463L 469 311.348L 467 311.348L 467 360.463L 469 360.463ZM 468.142 310.358L 0.141725 243.354L -0.141725 245.334L 467.858 312.338L 468.142 310.358ZM -1 244.344L -1 293.46L 1 293.46L 1 244.344L -1 244.344Z"/>
</defs>
</svg>
