<svg width="18" height="12" viewBox="0 0 18 12" fill="none" xmlns="http://www.w3.org/2000/svg">
    <path d="M13.5 8C13.3674 8 13.2402 8.05268 13.1464 8.14645C13.0527 8.24021 13 8.36739 13 8.5C13 8.63261 13.0527 8.75979 13.1464 8.85355C13.2402 8.94732 13.3674 9 13.5 9H15.5C15.6326 9 15.7598 8.94732 15.8536 8.85355C15.9473 8.75979 16 8.63261 16 8.5C16 8.36739 15.9473 8.24021 15.8536 8.14645C15.7598 8.05268 15.6326 8 15.5 8H13.5Z" fill="black"/>
    <path d="M0 2.5C0 1.83696 0.263392 1.20107 0.732233 0.732233C1.20107 0.263392 1.83696 0 2.5 0H15.5C16.163 0 16.7989 0.263392 17.2678 0.732233C17.7366 1.20107 18 1.83696 18 2.5V9.5C18 10.163 17.7366 10.7989 17.2678 11.2678C16.7989 11.7366 16.163 12 15.5 12H2.5C1.83696 12 1.20107 11.7366 0.732233 11.2678C0.263392 10.7989 0 10.163 0 9.5V2.5ZM1 9.5C1 9.89782 1.15804 10.2794 1.43934 10.5607C1.72064 10.842 2.10218 11 2.5 11H15.5C15.8978 11 16.2794 10.842 16.5607 10.5607C16.842 10.2794 17 9.89782 17 9.5V5H1V9.5ZM17 2.5C17 2.10218 16.842 1.72064 16.5607 1.43934C16.2794 1.15804 15.8978 1 15.5 1H2.5C2.10218 1 1.72064 1.15804 1.43934 1.43934C1.15804 1.72064 1 2.10218 1 2.5V4H17V2.5Z" fill="black"/>
</svg>
