<svg width="34" height="21" viewBox="0 0 34 21" version="1.1" xmlns="http://www.w3.org/2000/svg" xmlns:xlink="http://www.w3.org/1999/xlink">
    <title>Logo.svg</title>
    <desc>Created using Figma</desc>
    <g id="Canvas" transform="translate(457 489)">
        <g id="Logo">
            <g id="Vector">
                <use xlink:href="#path0_fill" transform="translate(-457 -489)" fill="#FFFFFF" fill-opacity="0.5"/>
            </g>
        </g>
    </g>
    <defs>
        <path id="path0_fill" d="M 0 21L 2.625 21L 2.625 0L 0 0L 0 21ZM 25.6696 21L 28.2946 21L 28.2946 0L 25.6696 0L 25.6696 21ZM 30.9196 21L 33.5446 21L 33.5446 0L 30.9196 0L 30.9196 21ZM 10.2235 21L 12.8485 21L 7.04608 0L 4.42108 0L 10.2235 21ZM 14.3681 15.75L 15.6666 11.2181L 12.4343 0L 9.80933 0L 14.3681 15.75ZM 23.8735 0L 21.2485 0L 15.4461 21L 18.0711 21L 23.8735 0Z"/>
    </defs>
</svg>
