<svg width="16" height="16" viewBox="0 0 16 16" version="1.1" xmlns="http://www.w3.org/2000/svg" xmlns:xlink="http://www.w3.org/1999/xlink">
<title>Mail.ru</title>
<desc>Created using Figma</desc>
<g id="Canvas" transform="translate(-25616 1618)">
<g id="Mail.ru">
<g id="Vector">
<use xlink:href="#path0_fill" transform="translate(25616 -1618)" fill="#168DE2"/>
</g>
</g>
</g>
<defs>
<path id="path0_fill" fill-rule="evenodd" d="M 7.7225 3.32161C 8.94541 3.32161 10.0949 3.8846 10.9392 4.76668L 10.9392 4.77019C 10.9392 4.34657 11.2123 4.02749 11.5923 4.02749L 11.6881 4.02683C 12.2819 4.02683 12.4037 4.61262 12.4037 4.79802L 12.4068 11.3822C 12.365 11.813 12.8335 12.0355 13.0936 11.7593C 14.1079 10.6728 15.3213 6.17407 12.463 3.56728C 9.79889 1.1369 6.22456 1.53751 4.32353 2.90325C 2.30266 4.356 1.00952 7.57071 2.26565 10.5902C 3.63491 13.8842 7.55303 14.8662 9.88194 13.8868C 11.0611 13.3905 11.6059 15.0521 10.3811 15.5949C 8.53056 16.4169 3.38007 16.3341 0.973981 11.9901C -0.651594 9.05655 -0.564964 3.89534 3.74635 1.22149C 7.0446 -0.823838 11.3929 -0.257334 14.0147 2.59666C 16.7556 5.58017 16.5958 11.1672 13.9224 13.3405C 12.7111 14.3269 10.9123 13.3664 10.9236 11.9283L 10.9112 11.458C 10.0676 12.3302 8.94541 12.8393 7.7225 12.8393C 5.30653 12.8393 3.18052 10.6235 3.18052 8.1061C 3.18073 5.56264 5.30653 3.32161 7.7225 3.32161ZM 10.7632 7.92376C 10.6721 6.07983 9.35901 4.97093 7.77339 4.97093L 7.71367 4.97093C 5.88372 4.97093 4.86876 6.47102 4.86876 8.17447C 4.86876 10.0824 6.09672 11.2873 7.70652 11.2873C 9.50157 11.2873 10.682 9.91693 10.7674 8.2961L 10.7632 7.92376Z"/>
</defs>
</svg>
