<svg width="16" height="16" viewBox="0 0 16 16" version="1.1" xmlns="http://www.w3.org/2000/svg" xmlns:xlink="http://www.w3.org/1999/xlink">
<title>rss</title>
<desc>Created using Figma</desc>
<g id="Canvas" transform="translate(-8464 -11035)">
<g id="rss">
<g id="Vector">
<use xlink:href="#path0_fill" transform="translate(8464 11035)" />
</g>
</g>
</g>
<defs>
<path id="path0_fill" fill-rule="evenodd" d="M 12.8 16C 12.8 8.978 7.022 3.2 0 3.2L 0 0C 8.777 0 16 7.223 16 16L 12.8 16ZM 2.194 11.61C 3.404 11.61 4.389 12.595 4.389 13.806C 4.389 15.016 3.399 16 2.189 16C 0.98 16 0 15.017 0 13.806C 0 12.596 0.983 11.611 2.194 11.611L 2.194 11.61ZM 10.606 16L 7.496 16C 7.496 11.887 4.113 8.503 0 8.503L 0 5.393C 5.818 5.393 10.606 10.183 10.606 16Z"/>
</defs>
</svg>
