<svg width="18" height="11" viewBox="0 0 18 11" version="1.1" xmlns="http://www.w3.org/2000/svg" xmlns:xlink="http://www.w3.org/1999/xlink">
<title>vk</title>
<desc>Created using Figma</desc>
<g id="Canvas" transform="translate(-25473 1615)">
<g id="vk">
<g id="Vector">
<use xlink:href="#path0_fill" transform="translate(25473 -1615)" fill="#6294C7"/>
</g>
</g>
</g>
<defs>
<path id="path0_fill" fill-rule="evenodd" d="M 8.77595 10.2047L 9.85288 10.2047C 9.85288 10.2047 10.177 10.1687 10.3435 9.99086C 10.5011 9.82544 10.5011 9.51823 10.5011 9.51823C 10.5011 9.51823 10.4786 8.07331 11.1537 7.86063C 11.8177 7.65019 12.6617 9.25603 13.5619 9.8727C 14.2484 10.3453 14.766 10.2441 14.766 10.2441L 17.1742 10.2103C 17.1742 10.2103 18.4346 10.1315 17.8382 9.14124C 17.7931 9.06247 17.5006 8.40979 16.0601 7.07065C 14.5522 5.67526 14.7548 5.90032 16.5665 3.48088C 17.6694 2.00671 18.1195 1.10646 17.9732 0.723848C 17.8494 0.363745 17.0279 0.453771 17.0279 0.453771L 14.3272 0.476278C 14.3272 0.476278 14.1246 0.453771 13.9783 0.543797C 13.832 0.633822 13.742 0.83638 13.742 0.83638C 13.742 0.83638 13.3144 1.98421 12.7405 2.95198C 11.524 4.99894 11.0401 5.11147 10.8488 4.97643C 10.3953 4.68385 10.5112 3.79147 10.5112 3.15341C 10.5112 1.17285 10.815 0.340114 9.92603 0.126303C 9.63344 0.0587837 9.41513 0.013771 8.66229 0.00251779C 7.69452 -0.00873542 6.87866 0.00926972 6.41615 0.235459C 6.11232 0.387377 5.876 0.723848 6.01104 0.741853C 6.19109 0.76436 6.5962 0.852134 6.81001 1.14472C 7.09134 1.52395 7.08009 2.37132 7.08009 2.37132C 7.08009 2.37132 7.23764 4.70861 6.70874 4.99894C 6.33738 5.19475 5.84224 4.78851 4.76193 2.93173C 4.21052 1.98646 3.79416 0.928656 3.79416 0.928656C 3.79416 0.928656 3.71538 0.737352 3.56909 0.62482C 3.40029 0.501035 3.15272 0.456022 3.15272 0.456022L 0.57574 0.478528C 0.57574 0.478528 0.193131 0.489782 0.0580928 0.65858C -0.0656925 0.804871 0.0468396 1.11996 0.0468396 1.11996C 0.0468396 1.11996 2.06116 5.83505 4.34556 8.20948C 6.43866 10.387 8.81308 10.2463 8.81308 10.2463L 8.77595 10.2047Z"/>
</defs>
</svg>
