<svg width="26" height="15" viewBox="0 0 26 15" version="1.1" xmlns="http://www.w3.org/2000/svg" xmlns:xlink="http://www.w3.org/1999/xlink">
<title>vk</title>
<desc>Created using Figma</desc>
<g id="Canvas" transform="translate(4500 -352)">
<g id="vk">
<g id="Vector">
<use xlink:href="#path0_fill" transform="translate(-4500 352)"/>
</g>
</g>
</g>
<defs>
<path id="path0_fill" fill-rule="evenodd" d="M 12.6764 14.7244L 14.2319 14.7244C 14.2319 14.7244 14.7001 14.6725 14.9406 14.4159C 15.1682 14.1772 15.1682 13.7339 15.1682 13.7339C 15.1682 13.7339 15.1357 11.6491 16.111 11.3422C 17.07 11.0385 18.2891 13.3556 19.5895 14.2454C 20.581 14.9274 21.3287 14.7812 21.3287 14.7812L 24.8072 14.7325C 24.8072 14.7325 26.6277 14.6189 25.7662 13.19C 25.7012 13.0763 25.2786 12.1346 23.198 10.2023C 21.0199 8.18888 21.3125 8.51363 23.9294 5.0226C 25.5224 2.8955 26.1726 1.59652 25.9613 1.04445C 25.7825 0.524851 24.5959 0.654751 24.5959 0.654751L 20.6948 0.687225C 20.6948 0.687225 20.4022 0.654751 20.1909 0.784649C 19.9796 0.914548 19.8495 1.20682 19.8495 1.20682C 19.8495 1.20682 19.2319 2.86303 18.4029 4.25944C 16.6457 7.21301 15.9468 7.37539 15.6705 7.18054C 15.0154 6.75837 15.1828 5.47075 15.1828 4.55009C 15.1828 1.69232 15.6217 0.490753 14.3376 0.182244C 13.915 0.0848195 13.5996 0.0198703 12.5122 0.00363294C 11.1143 -0.0126044 9.93584 0.0133754 9.26778 0.339746C 8.8289 0.55895 8.48755 1.04445 8.68261 1.07043C 8.94268 1.1029 9.52785 1.22955 9.83669 1.65172C 10.2431 2.19892 10.2268 3.42159 10.2268 3.42159C 10.2268 3.42159 10.4544 6.79409 9.6904 7.21302C 9.15399 7.49554 8.43879 6.90938 6.87835 4.23021C 6.08187 2.86628 5.48045 1.33997 5.48045 1.33997C 5.48045 1.33997 5.36666 1.06393 5.15535 0.901558C 4.91154 0.722947 4.55393 0.657998 4.55393 0.657998L 0.831625 0.690473C 0.831625 0.690473 0.278967 0.70671 0.0839118 0.950271C -0.0948891 1.16136 0.0676571 1.616 0.0676571 1.616C 0.0676571 1.616 2.97724 8.41945 6.27692 11.8455C 9.30028 14.9875 12.73 14.7845 12.73 14.7845L 12.6764 14.7244Z"/>
</defs>
</svg>
