<svg width="30" height="30" viewBox="0 0 30 30" fill="none" xmlns="http://www.w3.org/2000/svg">
    <path fill-rule="evenodd" clip-rule="evenodd" d="M15 0.599609C22.9529 0.599609 29.4 7.04671 29.4 14.9996C29.4 22.9525 22.9529 29.3996 15 29.3996C7.0471 29.3996 0.6 22.9525 0.6 14.9996C0.6 7.04671 7.0471 0.599609 15 0.599609ZM15 4.19961C20.9647 4.19961 25.8 9.03493 25.8 14.9996C25.8 20.9643 20.9647 25.7996 15 25.7996C9.03533 25.7996 4.2 20.9643 4.2 14.9996C4.2 9.03493 9.03533 4.19961 15 4.19961ZM15 20.3996C14.0059 20.3996 13.2 21.2055 13.2 22.1996C13.2 23.1937 14.0059 23.9996 15 23.9996C15.9941 23.9996 16.8 23.1937 16.8 22.1996C16.8 21.2055 15.9941 20.3996 15 20.3996ZM15 5.99961C14.0769 5.99961 13.3161 6.69448 13.2121 7.58969L13.2 7.79961V16.7996C13.2 17.7937 14.0059 18.5996 15 18.5996C15.9231 18.5996 16.6839 17.9047 16.7879 17.0095L16.8 16.7996V7.79961C16.8 6.8055 15.9941 5.99961 15 5.99961Z" fill="black"/>
</svg>
