<svg viewBox="0 0 24 24" fill="none" xmlns="http://www.w3.org/2000/svg">
    <circle cx="12" cy="12" r="12" fill="#19191D" fill-opacity="0.6"/>
    <path d="M15.9625 9.30926C15.9373 9.24851 15.9004 9.19334 15.8538 9.14689C15.8074 9.10033 15.7522 9.06339 15.6915 9.03818C15.6307 9.01297 15.5656 9 15.4998 9C15.4341 9 15.3689 9.01297 15.3082 9.03818C15.2475 9.06339 15.1923 9.10033 15.1458 9.14689L13.1458 11.1469C13.0993 11.1933 13.0623 11.2485 13.0371 11.3093C13.0119 11.37 12.9989 11.4351 12.9989 11.5009C12.9989 11.5667 13.0119 11.6318 13.0371 11.6925C13.0623 11.7533 13.0993 11.8084 13.1458 11.8549L15.1458 13.8549C15.2397 13.9488 15.3671 14.0015 15.4998 14.0015C15.6326 14.0015 15.7599 13.9488 15.8538 13.8549C15.9477 13.761 16.0005 13.6337 16.0005 13.5009C16.0005 13.3681 15.9477 13.2408 15.8538 13.1469L14.7068 12.0009H18.4998C18.6324 12.0009 18.7596 11.9482 18.8534 11.8544C18.9472 11.7607 18.9998 11.6335 18.9998 11.5009C18.9998 11.3683 18.9472 11.2411 18.8534 11.1473C18.7596 11.0536 18.6324 11.0009 18.4998 11.0009H14.7068L15.8538 9.85489C15.9004 9.80845 15.9373 9.75327 15.9625 9.69253C15.9878 9.63178 16.0007 9.56666 16.0007 9.50089C16.0007 9.43513 15.9878 9.37001 15.9625 9.30926Z" fill="white"/>
    <path d="M8.03729 9.30926C8.06249 9.24851 8.09944 9.19334 8.146 9.14689C8.19245 9.10033 8.24762 9.06339 8.30837 9.03818C8.36911 9.01297 8.43423 9 8.5 9C8.56577 9 8.63089 9.01297 8.69163 9.03818C8.75238 9.06339 8.80755 9.10033 8.854 9.14689L10.854 11.1469C10.9006 11.1933 10.9375 11.2485 10.9627 11.3093C10.9879 11.37 11.0009 11.4351 11.0009 11.5009C11.0009 11.5667 10.9879 11.6318 10.9627 11.6925C10.9375 11.7533 10.9006 11.8084 10.854 11.8549L8.854 13.8549C8.76011 13.9488 8.63278 14.0015 8.5 14.0015C8.36722 14.0015 8.23989 13.9488 8.146 13.8549C8.05211 13.761 7.99937 13.6337 7.99937 13.5009C7.99937 13.3681 8.05211 13.2408 8.146 13.1469L9.293 12.0009H5.5C5.36739 12.0009 5.24021 11.9482 5.14645 11.8544C5.05268 11.7607 5 11.6335 5 11.5009C5 11.3683 5.05268 11.2411 5.14645 11.1473C5.24021 11.0536 5.36739 11.0009 5.5 11.0009H9.293L8.146 9.85489C8.09944 9.80845 8.06249 9.75327 8.03729 9.69253C8.01208 9.63178 7.99911 9.56666 7.99911 9.50089C7.99911 9.43513 8.01208 9.37001 8.03729 9.30926Z" fill="white"/>
</svg>
