<svg viewBox="0 0 16 11" fill="none" xmlns="http://www.w3.org/2000/svg">
<path fill-rule="evenodd" clip-rule="evenodd" d="M16 5.4987C16 6.03948 15.5523 6.47786 15 6.47786L3.415 6.47786L5.70711 8.72299C6.06759 9.07596 6.09532 9.63138 5.7903 10.0155L5.70711 10.1077C5.34662 10.4607 4.77939 10.4879 4.3871 10.1892L4.29289 10.1077L0.292896 6.19107L0.251498 6.14803L0.196337 6.0816L0.124673 5.97267L0.0712275 5.8623L0.0358471 5.75915L0.00683636 5.61372L2.34446e-06 5.4987L0.00278994 5.42503L0.0202422 5.30215L0.0497403 5.19306L0.0936761 5.08429L0.145998 4.98884L0.212788 4.8948C0.237671 4.86374 0.26443 4.83419 0.292896 4.80632L4.2929 0.889655C4.68342 0.507267 5.31658 0.507267 5.70711 0.889655C6.06759 1.24263 6.09532 1.79804 5.7903 2.18216L5.70711 2.27441L3.415 4.51953L15 4.51953C15.5523 4.51953 16 4.95792 16 5.4987Z" fill="#B4B4BB"/>
</svg>
