<svg width="16" height="10" viewBox="0 0 16 10" fill="none" xmlns="http://www.w3.org/2000/svg">
<path fill-rule="evenodd" clip-rule="evenodd" d="M0 5C0 4.44772 0.447715 4 1 4H12.585L10.2929 1.70711C9.93241 1.34662 9.90468 0.779392 10.2097 0.387101L10.2929 0.292893C10.6534 -0.0675907 11.2206 -0.0953203 11.6129 0.209705L11.7071 0.292893L15.7071 4.29289L15.7485 4.33685L15.8037 4.40469L15.8753 4.51594L15.9288 4.62866L15.9642 4.73401L15.9932 4.88253L16 5L15.9972 5.07524L15.9798 5.20073L15.9503 5.31214L15.9063 5.42322L15.854 5.52071L15.7872 5.61675C15.7623 5.64847 15.7356 5.67864 15.7071 5.70711L11.7071 9.70711C11.3166 10.0976 10.6834 10.0976 10.2929 9.70711C9.93241 9.34662 9.90468 8.77939 10.2097 8.3871L10.2929 8.29289L12.585 6H1C0.447715 6 0 5.55228 0 5Z" fill="#B4B4BB"/>
</svg>
