<svg width="121" height="31" viewBox="0 0 121 31" fill="none" xmlns="http://www.w3.org/2000/svg">
    <path d="M3.317 26.537H0V0H3.317V26.537Z" fill="#4A4B57"/>
    <path d="M35.754 26.537H32.438V0H35.754V26.537Z" fill="#4A4B57"/>
    <path d="M42.389 26.537H39.071V0H42.389V26.537Z" fill="#4A4B57"/>
    <path d="M16.237 26.537H12.919L5.586 0H8.903L16.237 26.537Z" fill="#4A4B57"/>
    <path d="M19.797 14.175L18.156 19.902L12.395 0H15.712L19.797 14.175Z" fill="#4A4B57"/>
    <path d="M26.851 0H30.168L22.835 26.537H19.519L26.851 0Z" fill="#4A4B57"/>
    <path fill-rule="evenodd" clip-rule="evenodd" d="M64.222 16.868C63.395 16.069 62.261 15.998 61.055 15.976C59.094 15.976 56.943 16.961 56.941 19.239C56.941 20.6 57.887 22.032 59.377 22.385L59.3418 22.4133C58.845 22.8126 58.1 23.4113 58.1 24.052C58.1 24.686 58.597 25.297 59.234 25.462C57.959 25.953 56.541 26.588 56.541 28.208C56.541 30.369 59.306 30.838 61.125 30.838C63.016 30.838 65.995 30.227 65.995 27.761C65.995 25.7083 63.6927 25.1348 61.8285 24.6704C60.5604 24.3545 59.495 24.0892 59.495 23.443C59.495 23.137 59.849 22.526 59.849 22.526C59.849 22.526 60.276 22.596 61.055 22.596C63.015 22.596 65.19 21.587 65.19 19.239C65.19 18.418 65.025 17.76 64.717 17.338H66.869V15.694C66.018 15.882 65.095 16.327 64.222 16.868ZM60.1529 25.7954C61.6394 26.0437 63.9297 26.4262 64.058 28.208C64.058 29.592 62.805 29.992 61.48 29.992C60.062 29.992 58.479 29.476 58.479 27.784C58.479 26.776 58.882 26.26 59.708 25.719C59.8447 25.744 59.9942 25.769 60.1529 25.7954ZM63.323 19.239C63.323 20.577 62.519 21.681 61.055 21.681C59.614 21.681 58.81 20.74 58.81 19.239C58.81 17.971 59.402 16.868 61.055 16.868C62.473 16.868 63.323 17.736 63.323 19.239Z" fill="#4A4B57"/>
    <path d="M68.854 16.209V26.541H70.627V16.209H68.854Z" fill="#4A4B57"/>
    <path d="M69.8 11.984C69.091 11.984 68.499 12.429 68.476 13.228C68.476 13.956 69.019 14.448 69.8 14.449C70.461 14.449 71.075 13.98 71.075 13.228C71.075 12.523 70.578 11.984 69.8 11.984Z" fill="#4A4B57"/>
    <path d="M83.27 16.021L81.617 16.702L81.618 17.267H83.271V23.864C83.271 25.484 84.027 26.775 85.846 26.775C87.855 26.775 88.8 24.662 88.8 24.662L88.541 24.474C88.541 24.474 87.69 25.508 86.72 25.508C85.445 25.508 85.183 24.499 85.16 23.3V17.267H88.35V16.208H85.16V13.391L83.27 14.213V16.021Z" fill="#4A4B57"/>
    <path fill-rule="evenodd" clip-rule="evenodd" d="M94.92 26.775C97.236 26.775 98.417 24.616 98.417 24.616L98.111 24.285C98.111 24.285 97.213 25.507 95.441 25.507C93.055 25.507 91.942 23.465 91.872 21.257H98.417C98.417 21.257 98.537 20.459 98.537 19.848C98.537 17.5 97.048 15.975 94.613 15.975C91.423 15.975 89.909 18.182 89.909 21.328C89.909 24.286 91.541 26.775 94.92 26.775ZM91.92 20.318C92.038 18.675 92.486 16.913 94.567 16.913C96.055 16.913 96.552 18.464 96.552 20.038C96.552 20.201 96.504 20.318 96.504 20.318H91.92Z" fill="#4A4B57"/>
    <path d="M102.804 19.0024C103.077 18.4897 103.312 18.0503 103.853 17.713L106.596 17.712V15.975C103.872 15.975 103.399 16.8702 102.83 17.9495C102.801 18.0029 102.773 18.0568 102.744 18.111H102.65V16.209H100.877V26.541H102.65V19.286C102.704 19.1892 102.754 19.0946 102.804 19.0024Z" fill="#4A4B57"/>
    <path d="M109.312 11.984C108.651 11.984 108.012 12.477 107.99 13.228C107.99 13.909 108.604 14.448 109.312 14.449C109.998 14.449 110.66 14.027 110.66 13.228C110.66 12.523 110.116 11.984 109.312 11.984Z" fill="#4A4B57"/>
    <path d="M108.438 16.209V26.541H110.211V16.209H108.438Z" fill="#4A4B57"/>
    <path fill-rule="evenodd" clip-rule="evenodd" d="M54.674 26.541C54.674 26.541 54.201 24.897 54.201 23.253V19.239C54.201 17.151 53.422 15.976 51.13 15.976C48.056 15.976 47.254 18.911 47.254 18.911L47.704 19.028C47.704 19.028 48.532 16.914 50.658 16.914C51.486 16.914 52.43 17.383 52.43 19.145V20.741C52.3141 20.7492 52.1922 20.7571 52.0653 20.7653C49.9677 20.9015 46.522 21.1253 46.522 23.958C46.522 25.532 47.727 26.776 49.381 26.776C50.775 26.776 52.146 25.884 52.548 24.427C52.548 25.297 52.902 26.541 52.902 26.541H54.674ZM52.429 23.724C52.051 24.686 51.39 25.367 50.184 25.508C49.168 25.508 48.506 24.803 48.506 23.724C48.506 21.752 50.68 21.563 52.429 21.541V23.724Z" fill="#4A4B57"/>
    <path d="M78.426 24.192C78.426 25.273 77.48 25.836 76.417 25.836C74.55 25.836 73.794 23.957 73.796 23.956L73.322 24.191C73.322 24.191 73.938 26.774 76.419 26.774C78.19 26.774 80.318 25.764 80.318 23.722C80.318 22.0527 78.8788 21.262 77.5505 20.5321C76.412 19.9066 75.355 19.3259 75.355 18.275C75.355 17.523 76.063 16.912 76.891 16.912C78.521 16.912 79.254 18.439 79.254 18.439L79.726 18.204C79.726 18.204 79.135 15.975 76.749 15.975C75.282 15.975 73.487 16.795 73.487 18.51C73.487 20.4023 74.9702 21.2215 76.3111 21.9621C77.417 22.573 78.426 23.1303 78.426 24.192Z" fill="#4A4B57"/>
    <path fill-rule="evenodd" clip-rule="evenodd" d="M116.474 16.938C117.301 16.938 118.247 17.408 118.247 19.145H118.249V20.741C118.133 20.7492 118.011 20.7571 117.884 20.7653C115.787 20.9015 112.341 21.1253 112.341 23.958C112.341 25.532 113.546 26.776 115.199 26.776C116.593 26.776 117.964 25.884 118.366 24.427C118.366 25.297 118.721 26.541 118.721 26.541H120.492C120.492 26.541 120.019 24.897 120.019 23.253V19.262C120.019 17.172 119.239 15.998 116.948 15.998C113.875 15.998 113.071 18.933 113.071 18.933L113.519 19.051C113.519 19.051 114.347 16.938 116.474 16.938ZM118.247 23.724C117.868 24.686 117.207 25.367 116.001 25.508C114.985 25.508 114.323 24.803 114.323 23.724C114.323 21.752 116.498 21.563 118.247 21.541V23.724Z" fill="#4A4B57"/>
</svg>
