<svg viewBox="0 0 24 24" fill="none" xmlns="http://www.w3.org/2000/svg">
    <circle cx="12" cy="12" r="12" fill="#19191D" fill-opacity="0.6"/>
    <path d="M16.146 9.14689C16.1924 9.10033 16.2476 9.06339 16.3084 9.03818C16.3691 9.01297 16.4342 9 16.5 9C16.5658 9 16.6309 9.01297 16.6916 9.03818C16.7524 9.06339 16.8076 9.10033 16.854 9.14689L18.854 11.1469C18.9006 11.1933 18.9375 11.2485 18.9627 11.3093C18.9879 11.37 19.0009 11.4351 19.0009 11.5009C19.0009 11.5667 18.9879 11.6318 18.9627 11.6925C18.9375 11.7533 18.9006 11.8084 18.854 11.8549L16.854 13.8549C16.8075 13.9014 16.7523 13.9383 16.6916 13.9634C16.6308 13.9886 16.5657 14.0015 16.5 14.0015C16.4343 14.0015 16.3692 13.9886 16.3084 13.9634C16.2477 13.9383 16.1925 13.9014 16.146 13.8549C16.0995 13.8084 16.0626 13.7532 16.0375 13.6925C16.0123 13.6317 15.9994 13.5666 15.9994 13.5009C15.9994 13.4351 16.0123 13.37 16.0375 13.3093C16.0626 13.2486 16.0995 13.1934 16.146 13.1469L17.293 12.0009H13.5C13.3674 12.0009 13.2402 11.9482 13.1464 11.8544C13.0527 11.7607 13 11.6335 13 11.5009C13 11.3683 13.0527 11.2411 13.1464 11.1473C13.2402 11.0536 13.3674 11.0009 13.5 11.0009H17.293L16.146 9.85489C16.0994 9.80845 16.0625 9.75327 16.0373 9.69253C16.0121 9.63178 15.9991 9.56666 15.9991 9.50089C15.9991 9.43513 16.0121 9.37001 16.0373 9.30926C16.0625 9.24851 16.0994 9.19334 16.146 9.14689Z" fill="white"/>
    <path d="M7.96263 9.30926C7.93742 9.24851 7.90048 9.19334 7.85392 9.14689C7.80747 9.10033 7.7523 9.06339 7.69155 9.03818C7.63081 9.01297 7.56568 9 7.49992 9C7.43415 9 7.36903 9.01297 7.30828 9.03818C7.24754 9.06339 7.19236 9.10033 7.14592 9.14689L5.14592 11.1469C5.09935 11.1933 5.06241 11.2485 5.0372 11.3093C5.012 11.37 4.99902 11.4351 4.99902 11.5009C4.99902 11.5667 5.012 11.6318 5.0372 11.6925C5.06241 11.7533 5.09935 11.8084 5.14592 11.8549L7.14592 13.8549C7.2398 13.9488 7.36714 14.0015 7.49992 14.0015C7.63269 14.0015 7.76003 13.9488 7.85392 13.8549C7.9478 13.761 8.00055 13.6337 8.00055 13.5009C8.00055 13.3681 7.9478 13.2408 7.85392 13.1469L6.70692 12.0009H10.4999C10.6325 12.0009 10.7597 11.9482 10.8535 11.8544C10.9472 11.7607 10.9999 11.6335 10.9999 11.5009C10.9999 11.3683 10.9472 11.2411 10.8535 11.1473C10.7597 11.0536 10.6325 11.0009 10.4999 11.0009H6.70692L7.85392 9.85489C7.90048 9.80845 7.93742 9.75327 7.96263 9.69253C7.98784 9.63178 8.00081 9.56666 8.00081 9.50089C8.00081 9.43513 7.98784 9.37001 7.96263 9.30926Z" fill="white"/>
</svg>
