<?xml version="1.0" standalone="no"?><!-- Generator: Gravit.io --><svg xmlns="http://www.w3.org/2000/svg" xmlns:xlink="http://www.w3.org/1999/xlink" style="isolation:isolate" viewBox="0 0 16 30" width="16" height="30"><defs><clipPath id="_clipPath_DOpc3oe9Uac9idaVhYBwSwklQEjB0RZx"><rect width="16" height="30"/></clipPath></defs><g clip-path="url(#_clipPath_DOpc3oe9Uac9idaVhYBwSwklQEjB0RZx)"><g><clipPath id="_clipPath_LPhg59IrnN7UFLM8IDpR4ruVCneTeD1c"><path d=" M 0 0 L 16 0 L 16 30 L 8 20.87 L 0 30 L 0 0 Z " fill="rgb(255,255,255)"/></clipPath><g clip-path="url(#_clipPath_LPhg59IrnN7UFLM8IDpR4ruVCneTeD1c)"><g><path d=" M 0 0 L 0 -1.304 L -1.143 -1.304 L -1.143 0 L 0 0 Z  M 16 0 L 17.143 0 L 17.143 -1.304 L 16 -1.304 L 16 0 Z  M 16 30 L 15.192 30.922 L 17.143 33.149 L 17.143 30 L 16 30 Z  M 0 30 L -1.143 30 L -1.143 33.149 L 0.808 30.922 L 0 30 Z  M 8 20.87 L 8.808 19.947 L 8 19.025 L 7.192 19.947 L 8 20.87 Z  M 0 1.304 L 16 1.304 L 16 -1.304 L 0 -1.304 L 0 1.304 Z  M 14.857 0 L 14.857 30 L 17.143 30 L 17.143 0 L 14.857 0 Z  M 1.143 30 L 1.143 0 L -1.143 0 L -1.143 30 L 1.143 30 Z  M 16.808 29.078 L 8.808 19.947 L 7.192 21.792 L 15.192 30.922 L 16.808 29.078 Z  M 7.192 19.947 L -0.808 29.078 L 0.808 30.922 L 8.808 21.792 L 7.192 19.947 Z " fill="rgb(0,0,0)"/></g></g></g></g></svg>