<svg width="16" height="16" viewBox="0 0 16 16" version="1.1" xmlns="http://www.w3.org/2000/svg" xmlns:xlink="http://www.w3.org/1999/xlink">
<title>google</title>
<desc>Created using Figma</desc>
<g id="Canvas" transform="translate(-25471 1674)">
<g id="google">
<g id="Vector">
<use xlink:href="#path0_fill" transform="translate(25471 -1674)" fill="#D1333B"/>
</g>
</g>
</g>
<defs>
<path id="path0_fill" fill-rule="evenodd" d="M 8 6.857L 8 9.6L 12.537 9.6C 12.354 10.777 11.167 13.05 8 13.05C 5.27 13.05 3.04 10.79 3.04 8C 3.04 5.21 5.27 2.95 8 2.95C 9.554 2.95 10.594 3.61 11.19 4.183L 13.36 2.091C 11.966 0.79 10.16 0 8 0C 3.577 0 -3.57628e-09 3.577 -3.57628e-09 8C -3.57628e-09 12.423 3.577 16 8 16C 12.617 16 15.68 12.754 15.68 8.183C 15.68 7.657 15.623 7.257 15.554 6.857L 8 6.857Z"/>
</defs>
</svg>
