<svg width="330" height="245" viewBox="0 0 330 245" version="1.1" xmlns="http://www.w3.org/2000/svg" xmlns:xlink="http://www.w3.org/1999/xlink">
<title>&#208;&#152;</title>
<desc>Created using Figma</desc>
<g id="Canvas" transform="translate(-33191 465)">
<g id="&#208;&#152;">
<g id="&#208;&#152;">
<mask id="mask0_outline_ins">
<use xlink:href="#path0_fill" fill="white" transform="translate(33191 -465)"/>
<use xlink:href="#path1_fill" fill="white" transform="translate(33191 -465)"/>
<use xlink:href="#path2_fill" fill="white" transform="translate(33191 -465)"/>
<use xlink:href="#path3_fill" fill="white" transform="translate(33191 -465)"/>
</mask>
<g mask="url(#mask0_outline_ins)">
<use xlink:href="#path4_stroke_2x" transform="translate(33191 -465)" fill="#C8684C"/>
</g>
</g>
</g>
</g>
<defs>
<path id="path0_fill" d="M 270.11 0L 239.5 0L 239.5 245L 270.11 245L 270.11 0Z"/>
<path id="path1_fill" d="M 330 0L 299.39 0L 299.39 245L 330 245L 330 0Z"/>
<path id="path2_fill" d="M 0 0.208591L 59.8888 244.791L 90.4985 244.791L 30.6098 0.208591L 0 0.208591Z"/>
<path id="path3_fill" d="M 119.83 244.791L 150.44 244.791L 210.329 0.208591L 179.719 0.208591L 119.83 244.791Z"/>
<path id="path4_stroke_2x" d="M 239.5 0L 239.5 -1L 238.5 -1L 238.5 0L 239.5 0ZM 270.11 0L 271.11 0L 271.11 -1L 270.11 -1L 270.11 0ZM 270.11 245L 270.11 246L 271.11 246L 271.11 245L 270.11 245ZM 239.5 245L 238.5 245L 238.5 246L 239.5 246L 239.5 245ZM 299.39 0L 299.39 -1L 298.39 -1L 298.39 0L 299.39 0ZM 330 0L 331 0L 331 -1L 330 -1L 330 0ZM 330 245L 330 246L 331 246L 331 245L 330 245ZM 299.39 245L 298.39 245L 298.39 246L 299.39 246L 299.39 245ZM 0 0.208591L 0 -0.791409L -1.2744 -0.791409L -0.971306 0.446426L 0 0.208591ZM 59.8888 244.791L 58.9175 245.029L 59.1041 245.791L 59.8888 245.791L 59.8888 244.791ZM 90.4985 244.791L 90.4985 245.791L 91.7729 245.791L 91.4698 244.554L 90.4985 244.791ZM 30.6098 0.208591L 31.5811 -0.0292436L 31.3944 -0.791409L 30.6098 -0.791409L 30.6098 0.208591ZM 119.83 244.791L 118.859 244.554L 118.556 245.791L 119.83 245.791L 119.83 244.791ZM 150.44 244.791L 150.44 245.791L 151.225 245.791L 151.411 245.029L 150.44 244.791ZM 210.329 0.208591L 211.3 0.446426L 211.603 -0.791409L 210.329 -0.791409L 210.329 0.208591ZM 179.719 0.208591L 179.719 -0.791409L 178.934 -0.791409L 178.748 -0.0292436L 179.719 0.208591ZM 239.5 1L 270.11 1L 270.11 -1L 239.5 -1L 239.5 1ZM 269.11 0L 269.11 245L 271.11 245L 271.11 0L 269.11 0ZM 270.11 244L 239.5 244L 239.5 246L 270.11 246L 270.11 244ZM 240.5 245L 240.5 0L 238.5 0L 238.5 245L 240.5 245ZM 299.39 1L 330 1L 330 -1L 299.39 -1L 299.39 1ZM 329 0L 329 245L 331 245L 331 0L 329 0ZM 330 244L 299.39 244L 299.39 246L 330 246L 330 244ZM 300.39 245L 300.39 0L 298.39 0L 298.39 245L 300.39 245ZM -0.971306 0.446426L 58.9175 245.029L 60.8601 244.554L 0.971306 -0.0292437L -0.971306 0.446426ZM 59.8888 245.791L 90.4985 245.791L 90.4985 243.791L 59.8888 243.791L 59.8888 245.791ZM 91.4698 244.554L 31.5811 -0.0292436L 29.6385 0.446426L 89.5272 245.029L 91.4698 244.554ZM 30.6098 -0.791409L 0 -0.791409L 0 1.20859L 30.6098 1.20859L 30.6098 -0.791409ZM 119.83 245.791L 150.44 245.791L 150.44 243.791L 119.83 243.791L 119.83 245.791ZM 151.411 245.029L 211.3 0.446426L 209.357 -0.0292436L 149.469 244.554L 151.411 245.029ZM 210.329 -0.791409L 179.719 -0.791409L 179.719 1.20859L 210.329 1.20859L 210.329 -0.791409ZM 178.748 -0.0292436L 118.859 244.554L 120.802 245.029L 180.69 0.446426L 178.748 -0.0292436Z"/>
</defs>
</svg>
