<svg width="18" height="18" viewBox="0 0 18 18" version="1.1" xmlns="http://www.w3.org/2000/svg" xmlns:xlink="http://www.w3.org/1999/xlink">
<title>Group</title>
<desc>Created using Figma</desc>
<g id="Canvas" transform="translate(-31206 -1030)">
<g id="Group">
<g id="Vector">
<use xlink:href="#path0_fill" transform="translate(31206 1030)" fill="#2F2F2F" fill-opacity="0.4"/>
</g>
<g id="Vector">
<use xlink:href="#path1_fill" transform="translate(31214 1036)" fill="#2F2F2F" fill-opacity="0.4"/>
</g>
</g>
</g>
<defs>
<path id="path0_fill" d="M 7 11L 2 11C 1.448 11 1 10.552 1 10C 1 9.448 1.448 9 2 9L 7 9L 7 8C 7 5 10 5 10 5L 10 0C 10 0 3 0 2 0C 1 0 0 1 0 2L 0 10C 0 11 1 12 2 12L 7 12L 7 11Z"/>
<path id="path1_fill" d="M 2 11C 1.448 11 1 10.552 1 10C 1 9.448 1.448 9 2 9L 10 9L 10 0C 10 0 3 0 2 0C 1 0 0 1 0 2L 0 10C 0 11 1 12 2 12L 10 12L 10 11L 2 11Z"/>
</defs>
</svg>
