<svg width="14" height="24" viewBox="0 0 14 24" version="1.1" xmlns="http://www.w3.org/2000/svg" xmlns:xlink="http://www.w3.org/1999/xlink">
<title>odnoklassniki</title>
<desc>Created using Figma</desc>
<g id="Canvas" transform="translate(4403 -347)">
<g id="odnoklassniki">
<g id="Vector">
<use xlink:href="#path0_fill" transform="translate(-4403 347)" />
</g>
</g>
</g>
<defs>
<path id="path0_fill" fill-rule="evenodd" d="M 9.45614 17.439C 10.7161 17.154 11.9341 16.653 13.0561 15.9495C 13.9021 15.4155 14.1571 14.295 13.6231 13.4475C 13.0891 12.5985 11.9701 12.342 11.1211 12.8775C 8.58313 14.472 5.31614 14.472 2.78114 12.8775C 1.93214 12.342 0.811636 12.5985 0.279136 13.4475C -0.254864 14.2965 0.000135541 15.4155 0.849136 15.9495C 1.96814 16.6545 3.18314 17.1525 4.44464 17.439L 0.979636 20.904C 0.259636 21.609 0.259636 22.7595 0.979636 23.469C 1.32464 23.823 1.78964 24 2.25464 24C 2.71964 24 3.18464 23.823 3.52964 23.469L 6.95114 20.064L 10.3561 23.469C 11.0611 24.177 12.2116 24.177 12.9211 23.469C 13.6291 22.7595 13.6291 21.609 12.9211 20.904L 9.45614 17.439ZM 6.95114 12.387C 10.3681 12.387 13.1461 9.609 13.1461 6.195C 13.1461 2.778 10.3666 0 6.95114 0C 3.53564 0 0.756135 2.778 0.756135 6.195C 0.756135 9.609 3.53564 12.387 6.95114 12.387ZM 6.95114 3.63C 5.53814 3.63 4.38614 4.7805 4.38614 6.195C 4.38614 7.608 5.53814 8.76 6.95114 8.76C 8.36563 8.76 9.51614 7.608 9.51614 6.195C 9.51614 4.7805 8.36563 3.63 6.95114 3.63Z"/>
</defs>
</svg>
