<svg width="241" height="259" viewBox="0 0 241 259" version="1.1" xmlns="http://www.w3.org/2000/svg" xmlns:xlink="http://www.w3.org/1999/xlink">
<title>&#208;&#160;</title>
<desc>Created using Figma</desc>
<g id="Canvas" transform="translate(-6647 791)">
<g id="&#208;&#160;">
<mask id="mask0_outline_ins">
<use xlink:href="#path0_fill" fill="white" transform="translate(6647 -791)"/>
<use xlink:href="#path1_fill" fill="white" transform="translate(6647 -791)"/>
<use xlink:href="#path2_fill" fill="white" transform="translate(6647 -791)"/>
</mask>
<g mask="url(#mask0_outline_ins)">
<use xlink:href="#path3_stroke_2x" transform="translate(6647 -791)" fill="#C8684C"/>
</g>
</g>
</g>
<defs>
<path id="path0_fill" d="M 32.0165 2.30361L 0 2.30361L 0 259L 32.0165 259L 32.0165 2.30361Z"/>
<path id="path1_fill" d="M 147.703 0C 96.2581 0 54.4051 41.9444 54.4051 93.5013C 54.4051 145.058 96.2581 187.003 147.703 187.003C 199.147 187.003 241 145.058 241 93.5013C 241 41.9444 199.147 0 147.703 0ZM 147.703 157.534C 112.473 157.534 83.8118 128.81 83.8118 93.5038C 83.8118 58.1977 112.471 29.4709 147.703 29.4709C 182.934 29.4709 211.593 58.1952 211.593 93.5013C 211.593 128.807 182.932 157.534 147.703 157.534Z"/>
<path id="path2_fill" d="M 147.706 54.7152C 126.028 54.7152 108.394 72.3904 108.394 94.1153C 108.394 115.84 126.03 133.513 147.706 133.513C 169.383 133.513 187.02 115.84 187.02 94.1153C 187.02 72.3904 169.383 54.7152 147.706 54.7152ZM 147.706 111.41C 138.19 111.41 130.449 103.652 130.449 94.1153C 130.449 84.5766 138.19 76.8184 147.706 76.8184C 157.221 76.8184 164.965 84.5766 164.965 94.1153C 164.965 103.652 157.221 111.41 147.706 111.41Z"/>
<path id="path3_stroke_2x" d="M 0 2.30361L 0 1.30361L -1 1.30361L -1 2.30361L 0 2.30361ZM 32.0165 2.30361L 33.0165 2.30361L 33.0165 1.30361L 32.0165 1.30361L 32.0165 2.30361ZM 32.0165 259L 32.0165 260L 33.0165 260L 33.0165 259L 32.0165 259ZM 0 259L -1 259L -1 260L 0 260L 0 259ZM 164.965 94.1153L 165.965 94.1153L 164.965 94.1153ZM 0 3.30361L 32.0165 3.30361L 32.0165 1.30361L 0 1.30361L 0 3.30361ZM 31.0165 2.30361L 31.0165 259L 33.0165 259L 33.0165 2.30361L 31.0165 2.30361ZM 32.0165 258L 0 258L 0 260L 32.0165 260L 32.0165 258ZM 1 259L 1 2.30361L -1 2.30361L -1 259L 1 259ZM 147.703 -1C 95.7038 -1 53.4051 41.3942 53.4051 93.5013L 55.4051 93.5013C 55.4051 42.4947 96.8125 1 147.703 1L 147.703 -1ZM 53.4051 93.5013C 53.4051 145.608 95.7038 188.003 147.703 188.003L 147.703 186.003C 96.8125 186.003 55.4051 144.508 55.4051 93.5013L 53.4051 93.5013ZM 147.703 188.003C 199.701 188.003 242 145.608 242 93.5013L 240 93.5013C 240 144.508 198.593 186.003 147.703 186.003L 147.703 188.003ZM 242 93.5013C 242 41.3942 199.701 -1 147.703 -1L 147.703 1C 198.593 1 240 42.4947 240 93.5013L 242 93.5013ZM 147.703 156.534C 113.028 156.534 84.8118 128.26 84.8118 93.5038L 82.8118 93.5038C 82.8118 129.36 111.919 158.534 147.703 158.534L 147.703 156.534ZM 84.8118 93.5038C 84.8118 58.7478 113.025 30.4709 147.703 30.4709L 147.703 28.4709C 111.917 28.4709 82.8118 57.6475 82.8118 93.5038L 84.8118 93.5038ZM 147.703 30.4709C 182.38 30.4709 210.593 58.7454 210.593 93.5013L 212.593 93.5013C 212.593 57.645 183.489 28.4709 147.703 28.4709L 147.703 30.4709ZM 210.593 93.5013C 210.593 128.257 182.377 156.534 147.703 156.534L 147.703 158.534C 183.486 158.534 212.593 129.358 212.593 93.5013L 210.593 93.5013ZM 147.706 53.7152C 125.474 53.7152 107.394 71.8402 107.394 94.1153L 109.394 94.1153C 109.394 72.9405 126.582 55.7152 147.706 55.7152L 147.706 53.7152ZM 107.394 94.1153C 107.394 116.391 125.476 134.513 147.706 134.513L 147.706 132.513C 126.585 132.513 109.394 115.29 109.394 94.1153L 107.394 94.1153ZM 147.706 134.513C 169.937 134.513 188.02 116.391 188.02 94.1153L 186.02 94.1153C 186.02 115.29 168.829 132.513 147.706 132.513L 147.706 134.513ZM 188.02 94.1153C 188.02 71.8402 169.938 53.7152 147.706 53.7152L 147.706 55.7152C 168.829 55.7152 186.02 72.9406 186.02 94.1153L 188.02 94.1153ZM 147.706 110.41C 138.744 110.41 131.449 103.101 131.449 94.1153L 129.449 94.1153C 129.449 104.202 137.636 112.41 147.706 112.41L 147.706 110.41ZM 131.449 94.1153C 131.449 85.1267 138.745 77.8184 147.706 77.8184L 147.706 75.8184C 137.636 75.8184 129.449 84.0265 129.449 94.1153L 131.449 94.1153ZM 147.706 77.8184C 156.667 77.8184 163.965 85.1269 163.965 94.1153L 165.965 94.1153C 165.965 84.0263 157.775 75.8184 147.706 75.8184L 147.706 77.8184ZM 163.965 94.1153C 163.965 103.101 156.667 110.41 147.706 110.41L 147.706 112.41C 157.775 112.41 165.965 104.202 165.965 94.1153L 163.965 94.1153Z"/>
</defs>
</svg>
