<svg width="16" height="16" viewBox="0 0 16 16" version="1.1" xmlns="http://www.w3.org/2000/svg" xmlns:xlink="http://www.w3.org/1999/xlink">
<title>Vector</title>
<desc>Created using Figma</desc>
<g id="Canvas" transform="translate(-4321 2559)">
<g id="Vector">
<use xlink:href="#path0_fill" transform="matrix(6.12323e-17 1 -1 6.12323e-17 4337 -2559)" fill="#C8684C"/>
</g>
</g>
<defs>
<path id="path0_fill" d="M 8 0C 5.791 0 3.803 0.907 2.356 2.356L 0 0L 0 7L 7 7L 3.767 3.767C 4.852 2.679 6.345 2 8 2C 11.308 2 14 4.692 14 8C 14 11.308 11.308 14 8 14C 5.033 14 2.569 11.833 2.09 9L 0.069 9C 0.562 12.945 3.921 16 8 16C 12.418 16 16 12.418 16 8C 16 3.582 12.418 0 8 0Z"/>
</defs>
</svg>
