<svg width="18" height="18" viewBox="0 0 18 18" version="1.1" xmlns="http://www.w3.org/2000/svg" xmlns:xlink="http://www.w3.org/1999/xlink">
<title>&#208;&#161;&#208;&#186;&#208;&#190;&#209;&#128;&#208;&#190;&#209;&#129;&#209;&#130;&#209;&#140; &#208;&#191;&#209;&#128;&#208;&#190;&#208;&#184;&#208;&#179;&#209;&#128;&#209;&#139;&#208;&#178;&#208;&#176;&#208;&#189;&#208;&#184;&#209;&#143;</title>
<desc>Created using Figma</desc>
<g id="Canvas" transform="translate(5534 -5718)">
<g id="&#208;&#161;&#208;&#186;&#208;&#190;&#209;&#128;&#208;&#190;&#209;&#129;&#209;&#130;&#209;&#140; &#208;&#191;&#209;&#128;&#208;&#190;&#208;&#184;&#208;&#179;&#209;&#128;&#209;&#139;&#208;&#178;&#208;&#176;&#208;&#189;&#208;&#184;&#209;&#143;">
<clipPath id="clip-0" clip-rule="evenodd">
<path d="M -5534 5718L -5516 5718L -5516 5736L -5534 5736L -5534 5718Z" fill="#FFFFFF"/>
</clipPath>
<g id="Group" clip-path="url(#clip-0)">
<g id="Subtract">
<use xlink:href="#path0_fill" transform="translate(-5533.95 5718.05)" fill="#FFFFFF"/>
</g>
<g id="Rectangle 7">
<use xlink:href="#path1_fill" transform="matrix(0.707107 0.707107 -0.707107 0.707107 -5525.5 5722.5)" fill="#FFFFFF"/>
</g>
</g>
</g>
</g>
<defs>
<path id="path0_fill" fill-rule="evenodd" d="M 2.37744 2.7915C 1.08301 4.17236 0.219238 5.96167 0 7.94507L 2.01587 7.94507C 2.2207 6.51367 2.8584 5.22168 3.79248 4.20654L 2.37744 2.7915ZM 5.3512 2.93677C 6.13025 2.46973 7.00769 2.1499 7.94507 2.01587L 7.94507 0C 6.45874 0.164307 5.08142 0.690674 3.90332 1.48877L 5.3512 2.93677ZM 9.94507 17.8901C 14.4451 17.3926 17.9451 13.5776 17.9451 8.94507C 17.9451 4.3125 14.4451 0.497559 9.94507 0L 9.94507 2.01587C 13.3374 2.50122 15.9451 5.4187 15.9451 8.94507C 15.9451 12.4714 13.3374 15.3889 9.94507 15.8743L 9.94507 17.8901ZM 7.94507 17.8901L 7.94507 15.8743C 6.92188 15.728 5.97009 15.3604 5.13977 14.8215L 3.70093 16.2603C 4.92249 17.1375 6.3728 17.7163 7.94507 17.8901ZM 2.01587 9.94507C 2.20874 11.2925 2.78516 12.5161 3.6311 13.5017L 2.21362 14.9192C 1.01025 13.5642 0.209961 11.8435 0 9.94507L 2.01587 9.94507Z"/>
<path id="path1_fill" d="M 0 2.0551L 6.36396 0L 4.30886 6.36396L 0 2.0551Z"/>
</defs>
</svg>
