<svg width="444" height="328" viewBox="0 0 444 328" version="1.1" xmlns="http://www.w3.org/2000/svg" xmlns:xlink="http://www.w3.org/1999/xlink">
<title>&#208;&#144;</title>
<desc>Created using Figma</desc>
<g id="Canvas" transform="translate(-18779 -1421)">
<g id="&#208;&#144;">
<g id="&#208;&#144;">
<mask id="mask0_outline_ins">
<use xlink:href="#path0_fill" fill="white" transform="translate(18779 1421)"/>
<use xlink:href="#path1_fill" fill="white" transform="translate(18779 1421)"/>
</mask>
<g mask="url(#mask0_outline_ins)">
<use xlink:href="#path2_stroke_2x" transform="translate(18779 1421)" fill="#C8684C"/>
</g>
</g>
</g>
</g>
<defs>
<path id="path0_fill" d="M 444 325.752L 123.84 0L 69.6513 0L 389.815 325.752L 444 325.752Z"/>
<path id="path1_fill" d="M 99.5006 129.019C 44.6346 129.019 0 173.65 0 228.508C 0 283.366 44.6346 328 99.5006 328C 154.367 328 199.001 283.366 199.001 228.508C 199.001 173.65 154.363 129.019 99.5006 129.019ZM 99.5006 290.537C 65.294 290.537 37.4661 262.712 37.4661 228.508C 37.4661 194.307 65.294 166.482 99.5006 166.482C 133.707 166.482 161.535 194.307 161.535 228.508C 161.532 262.712 133.704 290.537 99.5006 290.537Z"/>
<path id="path2_stroke_2x" d="M 444 325.752L 444 326.752L 446.385 326.752L 444.713 325.051L 444 325.752ZM 123.84 0L 124.553 -0.700959L 124.259 -1L 123.84 -1L 123.84 0ZM 69.6513 0L 69.6513 -1L 67.2663 -1L 68.9381 0.700962L 69.6513 0ZM 389.815 325.752L 389.101 326.453L 389.395 326.752L 389.815 326.752L 389.815 325.752ZM 161.535 228.508L 162.535 228.508L 162.535 228.508L 161.535 228.508ZM 444.713 325.051L 124.553 -0.700959L 123.127 0.700959L 443.287 326.453L 444.713 325.051ZM 123.84 -1L 69.6513 -1L 69.6513 1L 123.84 1L 123.84 -1ZM 68.9381 0.700962L 389.101 326.453L 390.528 325.051L 70.3645 -0.700962L 68.9381 0.700962ZM 389.815 326.752L 444 326.752L 444 324.752L 389.815 324.752L 389.815 326.752ZM 99.5006 128.019C 44.0824 128.019 -1 173.097 -1 228.508L 1 228.508C 1 174.202 45.1868 130.019 99.5006 130.019L 99.5006 128.019ZM -1 228.508C -1 283.918 44.0824 329 99.5006 329L 99.5006 327C 45.1868 327 1 282.814 1 228.508L -1 228.508ZM 99.5006 329C 154.919 329 200.001 283.918 200.001 228.508L 198.001 228.508C 198.001 282.814 153.814 327 99.5006 327L 99.5006 329ZM 200.001 228.508C 200.001 173.097 154.916 128.019 99.5006 128.019L 99.5006 130.019C 153.811 130.019 198.001 174.202 198.001 228.508L 200.001 228.508ZM 99.5006 289.537C 65.8462 289.537 38.4661 262.159 38.4661 228.508L 36.4661 228.508C 36.4661 263.264 64.7418 291.537 99.5006 291.537L 99.5006 289.537ZM 38.4661 228.508C 38.4661 194.86 65.8462 167.482 99.5006 167.482L 99.5006 165.482C 64.7419 165.482 36.4661 193.755 36.4661 228.508L 38.4661 228.508ZM 99.5006 167.482C 133.155 167.482 160.535 194.86 160.535 228.508L 162.535 228.508C 162.535 193.755 134.259 165.482 99.5006 165.482L 99.5006 167.482ZM 160.535 228.508C 160.532 262.159 133.152 289.537 99.5006 289.537L 99.5006 291.537C 134.256 291.537 162.532 263.264 162.535 228.508L 160.535 228.508Z"/>
</defs>
</svg>
