<svg width="70" height="48" viewBox="0 0 70 48" fill="none" xmlns="http://www.w3.org/2000/svg">
<circle cx="14.5599" cy="30.5852" r="13.0599" stroke="#2F2F2F"/>
<path d="M63.3675 30.5852C63.3675 37.8201 57.7747 43.6451 50.924 43.6451C44.0733 43.6451 38.4805 37.8201 38.4805 30.5852C38.4805 23.3502 44.0733 17.5253 50.924 17.5253C57.7747 17.5253 63.3675 23.3502 63.3675 30.5852Z" stroke="#2F2F2F"/>
<path d="M28.1211 29.3526C28.1211 29.3526 28.669 25.6544 33.052 25.6544C37.435 25.6544 37.9828 29.3526 37.9828 29.3526" stroke="#2F2F2F"/>
<path d="M1 28.1198V8.99999C1 4.58172 4.58172 1 9 1H10.8617" stroke="#2F2F2F"/>
<path d="M63.8672 28.1199V9.00012C63.8672 4.58184 60.2855 1.00012 55.8672 1.00012H55.2382" stroke="#2F2F2F"/>
<circle cx="19.4896" cy="34.2834" r="13.0599" stroke="#2F2F2F" stroke-opacity="0.2"/>
<path d="M68.2972 34.2834C68.2972 41.5184 62.7044 47.3433 55.8537 47.3433C49.003 47.3433 43.4102 41.5184 43.4102 34.2834C43.4102 27.0484 49.003 21.2235 55.8537 21.2235C62.7044 21.2235 68.2972 27.0484 68.2972 34.2834Z" stroke="#2F2F2F" stroke-opacity="0.2"/>
<path d="M33.0508 33.0508C33.0508 33.0508 33.5987 29.3527 37.9817 29.3527C42.3646 29.3527 42.9125 33.0508 42.9125 33.0508" stroke="#2F2F2F" stroke-opacity="0.2"/>
<path d="M5.92969 31.8184V12.6986C5.92969 8.28032 9.51141 4.69861 13.9297 4.69861H15.7914" stroke="#2F2F2F" stroke-opacity="0.2"/>
<path d="M68.7969 31.8182V12.6984C68.7969 8.28008 65.2152 4.69836 60.7969 4.69836H60.1679" stroke="#2F2F2F" stroke-opacity="0.2"/>
</svg>
